<?xml version="1.0" encoding="UTF-8" standalone="no"?>
<!DOCTYPE svg PUBLIC "-//W3C//DTD SVG 1.1//EN" "http://www.w3.org/Graphics/SVG/1.1/DTD/svg11.dtd">
<svg width="100%" height="100%" viewBox="0 0 439 439" version="1.1" xmlns="http://www.w3.org/2000/svg" xmlns:xlink="http://www.w3.org/1999/xlink" xml:space="preserve" style="fill-rule:evenodd;clip-rule:evenodd;stroke-linejoin:round;stroke-miterlimit:1.41421;">
    <g id="About" transform="matrix(1,0,0,1,-2426.6,-158.88)">
        <path d="M2646.38,158.881C2647.79,158.888 2649.2,158.903 2650.61,158.935C2653.18,158.992 2655.75,159.094 2658.32,159.24C2666.16,159.688 2673.97,160.554 2681.71,161.838C2690.66,163.322 2699.51,165.365 2708.2,167.954C2717.41,170.694 2726.43,174.047 2735.2,177.979C2746.68,183.131 2757.71,189.279 2768.14,196.325C2778.49,203.323 2788.24,211.205 2797.26,219.856C2806.59,228.804 2815.14,238.573 2822.75,249.017C2829.89,258.804 2836.22,269.182 2841.65,280.013C2846.24,289.168 2850.18,298.646 2853.43,308.355C2856.67,317.996 2859.22,327.863 2861.07,337.86C2863.52,351.074 2864.74,364.514 2864.74,377.953C2864.74,388.187 2864.04,398.422 2862.62,408.557C2861.2,418.686 2859.06,428.714 2856.24,438.543C2852.85,450.342 2848.45,461.851 2843.12,472.909C2837.37,484.821 2830.55,496.206 2822.75,506.889C2815.14,517.332 2806.59,527.102 2797.26,536.05C2787.45,545.461 2776.77,553.963 2765.39,561.406C2754.11,568.788 2742.14,575.127 2729.69,580.307C2715.98,586.011 2701.69,590.306 2687.1,593.103C2673.46,595.72 2659.56,597.026 2645.67,597.026C2631.77,597.026 2617.88,595.72 2604.24,593.103C2589.65,590.306 2575.36,586.011 2561.65,580.307C2549.2,575.127 2537.23,568.788 2525.95,561.406C2514.57,553.963 2503.89,545.461 2494.07,536.05C2484.11,526.494 2475.05,516.001 2467.05,504.752C2459.89,494.693 2453.58,484.03 2448.22,472.909C2443.09,462.257 2438.82,451.187 2435.48,439.842C2432.46,429.598 2430.21,419.132 2428.72,408.557C2427.27,398.188 2426.56,387.716 2426.6,377.246C2426.64,364.042 2427.86,350.843 2430.27,337.86C2432.04,328.303 2434.45,318.864 2437.48,309.629C2440.82,299.476 2444.9,289.568 2449.69,280.013C2454.72,269.967 2460.53,260.31 2467.05,251.153C2474.67,240.44 2483.25,230.412 2492.66,221.226C2501.6,212.497 2511.28,204.528 2521.57,197.439C2532.47,189.926 2544.06,183.401 2556.14,177.979C2564.91,174.047 2573.93,170.694 2583.13,167.954C2592.05,165.3 2601.13,163.22 2610.31,161.727C2617.83,160.504 2625.41,159.675 2633.02,159.24C2635.59,159.094 2638.16,158.992 2640.73,158.935C2642.14,158.903 2643.55,158.888 2644.96,158.881C2645.43,158.88 2645.91,158.88 2646.38,158.881ZM2645.07,192.214C2641.68,192.23 2638.3,192.326 2634.92,192.519C2628.47,192.888 2622.03,193.59 2615.66,194.628C2607.88,195.892 2600.19,197.654 2592.65,199.901C2584.85,202.222 2577.21,205.061 2569.79,208.391C2560.4,212.606 2551.36,217.607 2542.8,223.32C2534.9,228.587 2527.41,234.459 2520.4,240.864C2512.03,248.517 2504.36,256.934 2497.51,265.974C2491.31,274.156 2485.79,282.851 2481.03,291.943C2476.92,299.782 2473.38,307.915 2470.43,316.262C2467.45,324.73 2465.09,333.416 2463.37,342.229C2461.03,354.187 2459.89,366.372 2459.93,378.554C2459.96,387.04 2460.55,395.525 2461.73,403.929C2462.99,412.886 2464.9,421.751 2467.45,430.427C2470.28,440.036 2473.9,449.411 2478.25,458.434C2483.12,468.533 2488.91,478.186 2495.51,487.243C2501.98,496.107 2509.23,504.399 2517.15,511.993C2525.47,519.98 2534.54,527.195 2544.2,533.511C2553.76,539.768 2563.9,545.141 2574.45,549.531C2586.06,554.361 2598.16,557.998 2610.51,560.366C2622.09,562.587 2633.88,563.692 2645.67,563.692C2657.46,563.692 2669.25,562.587 2680.83,560.366C2693.17,557.998 2705.28,554.361 2716.89,549.531C2727.44,545.141 2737.58,539.768 2747.14,533.511C2756.8,527.195 2765.86,519.98 2774.19,511.993C2782.11,504.399 2789.36,496.107 2795.82,487.243C2802.43,478.186 2808.22,468.533 2813.09,458.434C2817.61,449.069 2821.33,439.323 2824.2,429.331C2826.6,421.004 2828.4,412.51 2829.61,403.929C2830.81,395.327 2831.41,386.639 2831.41,377.953C2831.41,365.971 2830.27,353.99 2827.97,342.229C2826.29,333.603 2823.99,325.097 2821.09,316.799C2818.11,308.264 2814.51,299.951 2810.31,291.943C2805.29,282.356 2799.42,273.211 2792.81,264.642C2786.22,256.105 2778.89,248.139 2770.94,240.864C2763.93,234.459 2756.44,228.587 2748.54,223.32C2739.98,217.607 2730.94,212.606 2721.55,208.391C2714.13,205.061 2706.49,202.222 2698.69,199.901C2691.33,197.709 2683.83,195.979 2676.26,194.722C2669.69,193.633 2663.07,192.899 2656.42,192.519C2653.04,192.326 2649.66,192.23 2646.27,192.214C2645.87,192.214 2645.47,192.214 2645.07,192.214ZM2657.16,315.171C2657.79,315.182 2658.42,315.212 2659.05,315.278C2660.26,315.406 2661.47,315.651 2662.62,316.04C2663.67,316.394 2664.69,316.868 2665.63,317.46C2666.31,317.892 2666.96,318.386 2667.55,318.934C2667.99,319.335 2668.4,319.764 2668.78,320.216C2669.07,320.558 2669.34,320.915 2669.6,321.282C2671.35,323.789 2672.32,326.762 2672.84,329.753C2672.94,330.28 2673.01,330.81 2673.08,331.341C2673.17,332.079 2673.24,332.821 2673.29,333.563C2673.35,334.445 2673.39,335.328 2673.4,336.211C2673.4,336.596 2673.4,336.981 2673.39,337.365C2673.37,338.249 2673.32,339.132 2673.25,340.014C2673.12,341.7 2672.95,343.383 2672.77,345.064C2672.52,347.324 2672.24,349.581 2671.95,351.836C2671.41,355.814 2670.88,359.792 2670.35,363.771C2670.22,364.674 2670.11,365.577 2669.98,366.481C2669.45,370.397 2668.92,374.313 2668.38,378.228L2661.07,429.207L2659.29,440.597C2659.16,441.608 2659.02,442.618 2658.89,443.629C2658.41,447.275 2657.95,450.923 2657.57,454.581C2657.43,456.02 2657.29,457.461 2657.19,458.903C2657.11,459.962 2657.04,461.022 2657.02,462.083C2657,462.881 2657.01,463.681 2657.09,464.476C2657.12,464.872 2657.18,465.266 2657.26,465.655C2657.3,465.88 2657.36,466.102 2657.43,466.32C2657.48,466.455 2657.53,466.587 2657.59,466.716C2657.62,466.794 2657.66,466.871 2657.7,466.945C2657.72,466.985 2657.75,467.024 2657.78,467.062C2657.8,467.09 2657.82,467.116 2657.84,467.142C2657.87,467.175 2657.9,467.209 2657.93,467.232C2658,467.277 2658.1,467.289 2658.18,467.297C2658.23,467.302 2658.29,467.304 2658.34,467.304C2658.46,467.304 2658.58,467.302 2658.7,467.298C2658.91,467.291 2659.12,467.277 2659.33,467.257C2659.7,467.222 2660.06,467.167 2660.42,467.095C2661.06,466.967 2661.69,466.783 2662.3,466.556C2663.31,466.181 2664.27,465.689 2665.18,465.124C2666.64,464.221 2667.98,463.137 2669.23,461.966C2670.59,460.686 2671.85,459.296 2673.04,457.85C2674.63,455.917 2676.08,453.88 2677.45,451.789C2678.62,450.01 2679.72,448.189 2680.78,446.342C2682.78,442.84 2684.61,439.241 2686.34,435.597L2686.55,435.22C2686.64,435.105 2686.72,434.984 2686.81,434.875C2687,434.658 2687.22,434.468 2687.47,434.311C2687.71,434.154 2687.97,434.032 2688.25,433.948C2688.8,433.78 2689.4,433.77 2689.96,433.919C2690.1,433.956 2690.24,434.003 2690.37,434.059C2690.62,434.165 2690.85,434.308 2691.08,434.449C2691.56,434.738 2692.02,435.042 2692.48,435.363C2692.76,435.565 2693.04,435.775 2693.32,435.992C2694.72,437.102 2696,438.465 2696.65,440.154C2696.73,440.36 2696.8,440.569 2696.86,440.782C2696.95,441.108 2697.02,441.441 2697.05,441.777C2697.1,442.214 2697.1,442.655 2697.07,443.094C2697.03,443.736 2696.91,444.372 2696.76,444.996C2696.46,446.259 2695.98,447.479 2695.45,448.661C2694.77,450.156 2693.97,451.598 2693.13,453.008C2692.11,454.725 2691,456.394 2689.86,458.035C2688.43,460.086 2686.94,462.092 2685.41,464.071C2683.93,465.982 2682.42,467.864 2680.89,469.734C2680.34,470.404 2679.79,471.072 2679.24,471.733C2677.54,473.75 2675.79,475.723 2673.98,477.635C2672.51,479.186 2670.99,480.698 2669.43,482.155C2668.17,483.325 2666.88,484.46 2665.56,485.551C2664.51,486.411 2663.44,487.243 2662.35,488.041C2658.9,490.557 2655.19,492.754 2651.2,494.296C2647.5,495.725 2643.55,496.575 2639.58,496.534C2637.78,496.515 2635.98,496.277 2634.27,495.725C2633.11,495.351 2632,494.834 2630.98,494.171C2630.32,493.745 2629.7,493.26 2629.13,492.725C2628.72,492.334 2628.33,491.916 2627.96,491.476C2627.69,491.143 2627.43,490.797 2627.18,490.44C2625.57,488.089 2624.67,485.327 2624.19,482.538C2624.11,482.122 2624.05,481.705 2624,481.287C2623.92,480.68 2623.85,480.072 2623.81,479.462C2623.74,478.639 2623.71,477.813 2623.69,476.987C2623.68,476.611 2623.68,476.235 2623.68,475.86C2623.69,475.12 2623.73,474.381 2623.77,473.643C2623.86,472.203 2623.98,470.766 2624.12,469.331C2624.3,467.415 2624.51,465.501 2624.73,463.589C2625,461.188 2625.29,458.789 2625.59,456.391C2626.03,452.864 2626.5,449.339 2626.97,445.816C2627.65,440.807 2628.35,435.801 2629.06,430.797L2636.01,382.337C2636.6,378.239 2637.19,374.14 2637.79,370.042C2638.28,366.652 2638.79,363.264 2639.27,359.872C2639.33,359.381 2639.4,358.89 2639.46,358.399C2639.73,356.28 2639.94,354.152 2640.03,352.018C2640.08,350.795 2640.1,349.566 2640,348.345C2639.96,347.793 2639.89,347.242 2639.78,346.698C2639.72,346.379 2639.64,346.061 2639.53,345.752C2639.47,345.569 2639.4,345.389 2639.32,345.215C2639.27,345.11 2639.21,345.007 2639.15,344.909C2639.05,344.744 2638.92,344.57 2638.74,344.487C2638.64,344.442 2638.53,344.422 2638.42,344.411C2638.32,344.401 2638.22,344.4 2638.13,344.401C2637.96,344.402 2637.8,344.408 2637.64,344.418C2637.36,344.434 2637.08,344.463 2636.8,344.503C2636.31,344.575 2635.82,344.682 2635.34,344.819C2634.49,345.064 2633.67,345.402 2632.88,345.803C2631.57,346.466 2630.35,347.297 2629.2,348.209C2627.75,349.372 2626.4,350.673 2625.14,352.043C2623.52,353.798 2622.03,355.67 2620.62,357.6C2619.12,359.65 2617.72,361.77 2616.39,363.93C2614.49,367.007 2612.73,370.167 2611.05,373.369L2610.82,373.741C2610.72,373.853 2610.64,373.972 2610.54,374.077C2610.34,374.289 2610.11,374.47 2609.85,374.617C2609.09,375.061 2608.16,375.161 2607.32,374.888C2607.04,374.798 2606.77,374.669 2606.53,374.505C2606.28,374.334 2606.05,374.119 2605.83,373.911C2605.52,373.617 2605.22,373.314 2604.93,372.999C2603.62,371.594 2602.55,369.938 2602.06,368.07C2601.92,367.542 2601.83,367.003 2601.79,366.459C2601.75,365.901 2601.77,365.338 2601.81,364.781C2601.86,364.047 2601.96,363.317 2602.11,362.595C2602.46,360.819 2603.07,359.1 2603.82,357.454C2604.67,355.58 2605.71,353.793 2606.84,352.078C2608.59,349.43 2610.58,346.942 2612.68,344.561C2615.2,341.698 2617.89,338.982 2620.66,336.359C2623.17,333.978 2625.75,331.665 2628.41,329.446C2631.11,327.194 2633.9,325.038 2636.8,323.059C2638.63,321.817 2640.51,320.644 2642.45,319.584C2644.01,318.73 2645.61,317.948 2647.26,317.28C2649.56,316.353 2651.95,315.637 2654.42,315.329C2655.1,315.244 2655.78,315.196 2656.47,315.175C2656.7,315.171 2656.93,315.17 2657.16,315.171ZM2663.56,261.942C2664.37,261.958 2665.17,262.014 2665.97,262.127C2667.83,262.39 2669.64,262.933 2671.34,263.734C2673.28,264.646 2675.05,265.89 2676.58,267.391C2678.1,268.893 2679.37,270.651 2680.32,272.571C2681.08,274.113 2681.63,275.758 2681.95,277.447C2682.4,279.824 2682.4,282.288 2681.95,284.666C2681.57,286.658 2680.87,288.586 2679.89,290.359C2678.93,292.096 2677.7,293.68 2676.25,295.039C2674.57,296.61 2672.62,297.877 2670.5,298.753C2668.22,299.69 2665.77,300.172 2663.32,300.172C2660.86,300.172 2658.41,299.69 2656.14,298.753C2654.02,297.877 2652.06,296.61 2650.39,295.039C2648.88,293.627 2647.61,291.973 2646.64,290.158C2645.67,288.37 2645,286.43 2644.64,284.431C2644.25,282.205 2644.25,279.908 2644.64,277.682C2644.96,275.91 2645.52,274.184 2646.32,272.571C2647.26,270.651 2648.53,268.893 2650.06,267.391C2651.58,265.89 2653.36,264.646 2655.29,263.734C2656.92,262.967 2658.65,262.436 2660.43,262.162C2660.98,262.076 2661.54,262.016 2662.1,261.98C2662.42,261.959 2662.75,261.949 2663.07,261.942C2663.32,261.941 2663.32,261.941 2663.56,261.942Z"/>
    </g>
</svg>
