<?xml version="1.0" encoding="UTF-8" standalone="no"?>
<!DOCTYPE svg PUBLIC "-//W3C//DTD SVG 1.1//EN" "http://www.w3.org/Graphics/SVG/1.1/DTD/svg11.dtd">
<svg width="100%" height="100%" viewBox="0 0 537 498" version="1.1" xmlns="http://www.w3.org/2000/svg" xmlns:xlink="http://www.w3.org/1999/xlink" xml:space="preserve" style="fill-rule:evenodd;clip-rule:evenodd;stroke-linejoin:round;stroke-miterlimit:1.41421;">
    <g id="Home" transform="matrix(1,0,0,1,-865.686,-124.605)">
        <path d="M1154.74,256.236C1143.21,244.704 1124.51,244.704 1112.98,256.236C1068.2,301.013 965.03,404.185 940.739,428.476C937.416,431.798 935.55,436.305 935.55,441.003C935.55,468.275 935.55,564.268 935.55,604.28C935.55,608.979 937.416,613.485 940.739,616.808C944.061,620.13 948.568,621.997 953.266,621.997C978.455,621.997 1024.35,621.997 1049.54,621.997C1059.32,621.997 1067.26,614.065 1067.26,604.28C1067.26,572.329 1067.26,505.414 1067.26,473.462C1067.26,463.678 1075.19,455.746 1084.97,455.746L1182.75,455.746C1192.53,455.746 1200.46,463.678 1200.46,473.462C1200.46,505.414 1200.46,572.329 1200.46,604.28C1200.46,614.065 1208.39,621.997 1218.18,621.997C1243.37,621.997 1289.26,621.997 1314.45,621.997C1319.15,621.997 1323.65,620.13 1326.98,616.808C1330.3,613.485 1332.17,608.979 1332.17,604.28C1332.17,564.268 1332.17,468.275 1332.17,441.003C1332.17,436.305 1330.3,431.798 1326.98,428.476C1302.69,404.185 1199.52,301.013 1154.74,256.236ZM912.601,422.161C905.668,428.992 894.522,428.951 887.64,422.068C882.345,416.774 876.18,410.609 870.875,405.304C867.553,401.982 865.686,397.475 865.686,392.777C865.686,388.078 867.553,383.572 870.875,380.249C916.772,334.353 1075.43,175.69 1121.33,129.794C1124.65,126.471 1129.16,124.605 1133.86,124.605C1138.56,124.605 1143.06,126.471 1146.39,129.794C1192.28,175.69 1350.94,334.353 1396.84,380.249C1400.16,383.572 1402.03,388.078 1402.03,392.777C1402.03,397.475 1400.16,401.982 1396.84,405.304C1391.57,410.578 1385.44,416.702 1380.17,421.975C1376.85,425.298 1372.34,427.165 1367.64,427.165C1362.94,427.165 1358.44,425.298 1355.12,421.975C1314.73,381.594 1188.28,255.142 1148.03,214.894C1141.15,208.011 1130.01,207.97 1123.07,214.801C1082.26,255.009 953.413,381.953 912.601,422.161ZM1227.62,149.811C1227.62,140.027 1235.55,132.095 1245.34,132.095C1257.62,132.095 1273.9,132.095 1286.18,132.095C1295.96,132.095 1303.89,140.027 1303.89,149.811C1303.89,180.043 1303.89,239.077 1303.89,246.623C1303.89,247.915 1303.11,249.081 1301.92,249.575C1300.73,250.07 1299.35,249.797 1298.44,248.883C1282.93,233.375 1239.09,189.536 1229.49,179.938C1228.29,178.74 1227.62,175.419 1227.62,175.419C1227.62,175.419 1227.62,161.783 1227.62,149.811Z"/>
    </g>
</svg>
