<?xml version="1.0" encoding="UTF-8" standalone="no"?>
<!DOCTYPE svg PUBLIC "-//W3C//DTD SVG 1.1//EN" "http://www.w3.org/Graphics/SVG/1.1/DTD/svg11.dtd">
<svg width="100%" height="100%" viewBox="0 0 540 373" version="1.1" xmlns="http://www.w3.org/2000/svg" xmlns:xlink="http://www.w3.org/1999/xlink" xml:space="preserve" style="fill-rule:evenodd;clip-rule:evenodd;stroke-linejoin:round;stroke-miterlimit:1.41421;">
    <g id="Leaderboard" transform="matrix(1,0,0,1,-1619.85,-191.845)">
        <path d="M1649.84,505.12C1653.81,505.12 1657.24,503.954 1660.11,501.622C1662.98,499.29 1664.41,495.944 1664.41,491.583C1664.41,488.258 1663.27,485.397 1660.98,483.001C1658.69,480.604 1655.61,479.406 1651.72,479.406C1649.09,479.406 1646.91,479.773 1645.21,480.507C1643.5,481.241 1642.15,482.213 1641.16,483.422C1640.17,484.631 1639.23,486.185 1638.34,488.085C1637.46,489.985 1636.65,491.777 1635.91,493.461C1635.48,494.368 1634.71,495.08 1633.58,495.598C1632.46,496.117 1631.16,496.376 1629.7,496.376C1627.97,496.376 1626.38,495.674 1624.94,494.271C1623.49,492.867 1622.77,491 1622.77,488.668C1622.77,486.423 1623.45,484.059 1624.81,481.576C1626.17,479.093 1628.15,476.729 1630.77,474.483C1633.38,472.238 1636.63,470.435 1640.51,469.075C1644.4,467.715 1648.74,467.035 1653.53,467.035C1657.72,467.035 1661.54,467.607 1665,468.751C1668.45,469.896 1671.45,471.547 1674,473.706C1676.55,475.865 1678.47,478.37 1679.76,481.219C1681.06,484.069 1681.71,487.135 1681.71,490.417C1681.71,494.735 1680.77,498.437 1678.89,501.525C1677.01,504.612 1674.32,507.624 1670.83,510.56C1674.19,512.374 1677.03,514.446 1679.34,516.778C1681.65,519.11 1683.39,521.69 1684.56,524.518C1685.72,527.346 1686.31,530.401 1686.31,533.683C1686.31,537.612 1685.52,541.412 1683.94,545.083C1682.37,548.753 1680.05,552.024 1676.98,554.895C1673.91,557.767 1670.28,560.012 1666.07,561.631C1661.86,563.251 1657.2,564.06 1652.11,564.06C1646.93,564.06 1642.28,563.132 1638.18,561.275C1634.08,559.418 1630.7,557.097 1628.05,554.312C1625.39,551.527 1623.38,548.645 1622.02,545.666C1620.66,542.686 1619.98,540.225 1619.98,538.282C1619.98,535.777 1620.79,533.759 1622.41,532.226C1624.03,530.693 1626.05,529.926 1628.47,529.926C1629.67,529.926 1630.84,530.283 1631.96,530.995C1633.09,531.708 1633.82,532.56 1634.17,533.554C1636.41,539.556 1638.82,544.014 1641.39,546.929C1643.96,549.843 1647.57,551.3 1652.24,551.3C1654.91,551.3 1657.49,550.642 1659.98,549.325C1662.46,548.008 1664.51,546.054 1666.13,543.463C1667.75,540.873 1668.56,537.872 1668.56,534.46C1668.56,529.408 1667.18,525.447 1664.41,522.575C1661.65,519.704 1657.81,518.268 1652.88,518.268C1652.02,518.268 1650.68,518.354 1648.87,518.527C1647.06,518.7 1645.89,518.786 1645.37,518.786C1643,518.786 1641.16,518.192 1639.87,517.005C1638.57,515.817 1637.92,514.166 1637.92,512.05C1637.92,509.977 1638.7,508.304 1640.25,507.03C1641.81,505.756 1644.12,505.12 1647.18,505.12L1649.84,505.12ZM2124.26,480.802C2143.44,480.802 2159.01,496.371 2159.01,515.548C2159.01,534.724 2143.44,550.293 2124.26,550.293L1764.18,550.293C1745,550.293 1729.43,534.724 1729.43,515.548C1729.43,496.371 1745,480.802 1764.18,480.802L2124.26,480.802ZM1677.82,425.785L1630.15,425.785C1626.91,425.785 1624.39,424.889 1622.57,423.097C1620.76,421.305 1619.85,419.2 1619.85,416.782C1619.85,415.228 1620.43,413.166 1621.6,410.597C1622.77,408.028 1624.04,406.009 1625.42,404.541C1631.16,398.582 1636.35,393.476 1640.97,389.223C1645.59,384.969 1648.89,382.174 1650.88,380.835C1654.42,378.331 1657.36,375.815 1659.72,373.289C1662.07,370.763 1663.86,368.173 1665.09,365.517C1666.32,362.861 1666.94,360.26 1666.94,357.712C1666.94,354.949 1666.28,352.477 1664.96,350.296C1663.65,348.115 1661.86,346.421 1659.59,345.212C1657.32,344.003 1654.85,343.398 1652.17,343.398C1646.52,343.398 1642.07,345.881 1638.83,350.847C1638.4,351.494 1637.67,353.265 1636.66,356.158C1635.64,359.051 1634.5,361.275 1633.23,362.829C1631.95,364.383 1630.09,365.161 1627.62,365.161C1625.47,365.161 1623.67,364.448 1622.25,363.023C1620.82,361.598 1620.11,359.655 1620.11,357.194C1620.11,354.215 1620.78,351.106 1622.12,347.867C1623.46,344.629 1625.45,341.692 1628.11,339.058C1630.77,336.424 1634.13,334.298 1638.21,332.679C1642.3,331.059 1647.08,330.25 1652.56,330.25C1659.17,330.25 1664.8,331.286 1669.47,333.359C1672.49,334.74 1675.14,336.64 1677.43,339.058C1679.72,341.477 1681.5,344.272 1682.78,347.446C1684.05,350.62 1684.69,353.912 1684.69,357.324C1684.69,362.678 1683.36,367.546 1680.7,371.929C1678.05,376.312 1675.34,379.745 1672.57,382.228C1669.81,384.71 1665.18,388.607 1658.68,393.919C1652.18,399.23 1647.72,403.353 1645.31,406.29C1644.27,407.455 1643.21,408.859 1642.13,410.5L1675.94,410.5C1679.31,410.5 1681.88,411.191 1683.65,412.572C1685.42,413.954 1686.31,415.832 1686.31,418.207C1686.31,420.323 1685.6,422.115 1684.2,423.583C1682.8,425.051 1680.67,425.785 1677.82,425.785ZM2124.26,343.272C2143.44,343.272 2159.01,358.841 2159.01,378.018C2159.01,397.194 2143.44,412.763 2124.26,412.763L1764.18,412.763C1745,412.763 1729.43,397.194 1729.43,378.018C1729.43,358.841 1745,343.272 1764.18,343.272L2124.26,343.272ZM1648.93,278.507L1648.93,219.567C1637.97,227.987 1630.58,232.197 1626.78,232.197C1624.97,232.197 1623.36,231.474 1621.96,230.027C1620.55,228.581 1619.85,226.907 1619.85,225.008C1619.85,222.805 1620.54,221.186 1621.92,220.15C1623.31,219.113 1625.75,217.775 1629.24,216.134C1634.47,213.673 1638.65,211.082 1641.78,208.362C1644.91,205.641 1647.68,202.597 1650.1,199.229C1652.52,195.861 1654.09,193.788 1654.83,193.011C1655.56,192.234 1656.94,191.845 1658.97,191.845C1661.26,191.845 1663.1,192.731 1664.48,194.501C1665.86,196.271 1666.55,198.711 1666.55,201.82L1666.55,275.981C1666.55,284.661 1663.59,289 1657.68,289C1655.04,289 1652.93,288.115 1651.33,286.345C1649.73,284.574 1648.93,281.962 1648.93,278.507ZM2124.26,205.677C2143.44,205.678 2159.01,221.246 2159.01,240.423C2159.01,259.599 2143.44,275.168 2124.26,275.168L1764.18,275.168C1745,275.168 1729.43,259.599 1729.43,240.423C1729.43,221.246 1745,205.678 1764.18,205.677L2124.26,205.677Z"/>
    </g>
</svg>
