<?xml version="1.0" encoding="UTF-8" standalone="no"?>
<!DOCTYPE svg PUBLIC "-//W3C//DTD SVG 1.1//EN" "http://www.w3.org/Graphics/SVG/1.1/DTD/svg11.dtd">
<svg width="100%" height="100%" viewBox="0 0 358 233" version="1.1" xmlns="http://www.w3.org/2000/svg" xmlns:xlink="http://www.w3.org/1999/xlink" xml:space="preserve" style="fill-rule:evenodd;clip-rule:evenodd;stroke-linecap:round;stroke-linejoin:round;stroke-miterlimit:10;">
    <g transform="matrix(4.16667,0,0,4.16667,-191.864,-130.76)">
        <path d="M63.027,58.36C63.027,58.36 47.787,57.53 47.382,72.79C47.287,81.35 55.282,85.37 59.317,85.73C62.056,85.97 114.22,85.73 114.22,85.73C114.22,85.73 129.659,84.02 130.488,67.18C131.116,51.29 117.417,48.71 115.551,48.31C115.933,45.22 112.539,33.3 100.155,32.73C95.108,32.49 89.045,35.27 85.962,41.72C82.605,40.89 65.361,39.5 63.027,58.36Z" style="fill:white;stroke:rgb(136,210,232);stroke-width:2.67px;"/>
    </g>
    <path d="M143.962,198.114C143.971,198.459 143.979,198.805 143.987,199.151C144.051,202.027 144.084,204.903 144.069,207.78C144.057,210.011 144.015,212.243 143.944,214.473L143.926,215.019C143.914,215.176 143.916,215.216 143.884,215.37C143.836,215.601 143.749,215.824 143.627,216.026C143.505,216.228 143.348,216.409 143.166,216.558C142.984,216.708 142.776,216.826 142.554,216.907C141.938,217.13 141.237,217.046 140.692,216.684C140.544,216.586 140.409,216.47 140.291,216.338C140.015,216.029 139.836,215.64 139.78,215.23C139.758,215.074 139.763,215.034 139.762,214.877C139.78,214.337 139.797,213.796 139.813,213.255C139.862,211.423 139.893,209.59 139.902,207.758C139.92,204.398 139.873,201.038 139.782,197.68C139.575,197.444 139.37,197.207 139.164,196.97C137.513,195.05 135.923,193.079 134.408,191.049C131.759,187.5 129.332,183.787 127.133,179.943C126.929,179.585 126.726,179.226 126.525,178.866C126.258,178.387 125.994,177.906 125.734,177.423C125.603,177.18 125.476,176.941 125.347,176.697C125.229,176.474 125.098,176.253 125.019,176.011C124.964,175.843 124.931,175.668 124.92,175.491C124.884,174.898 125.11,174.306 125.531,173.887C125.698,173.721 125.894,173.584 126.107,173.483C126.32,173.381 126.55,173.317 126.785,173.293C126.844,173.287 126.903,173.286 126.962,173.282C127.021,173.283 127.08,173.285 127.138,173.286C127.295,173.303 127.335,173.303 127.488,173.34C127.89,173.437 128.259,173.655 128.538,173.96C128.618,174.048 128.69,174.141 128.753,174.241C128.785,174.29 128.813,174.343 128.842,174.393C129.028,174.745 129.214,175.096 129.402,175.446C130.095,176.726 130.808,177.995 131.549,179.247C132.971,181.65 134.487,183.998 136.096,186.28C137.568,188.369 139.118,190.404 140.741,192.377C141.261,193.009 141.79,193.634 142.325,194.253C143.668,193.475 144.933,192.565 146.136,191.585C147.669,190.338 149.108,188.977 150.479,187.555C152.596,185.361 154.558,183.017 156.403,180.59C157.109,179.661 157.797,178.719 158.467,177.764C158.951,177.072 159.43,176.375 159.884,175.662L159.957,175.556C160.036,175.454 160.116,175.356 160.21,175.267C160.46,175.032 160.766,174.86 161.097,174.771C161.264,174.725 161.432,174.707 161.604,174.699C161.647,174.699 161.69,174.7 161.732,174.7C161.846,174.709 161.875,174.708 161.987,174.727C162.198,174.763 162.404,174.831 162.594,174.929C162.784,175.027 162.959,175.154 163.111,175.305C163.57,175.762 163.793,176.423 163.705,177.065C163.676,177.277 163.614,177.484 163.522,177.677C163.477,177.772 163.424,177.861 163.367,177.949C163.227,178.167 163.085,178.383 162.943,178.599C161.353,180.973 159.653,183.273 157.851,185.49C156.078,187.672 154.204,189.776 152.193,191.743C150.804,193.101 149.349,194.395 147.805,195.576C146.584,196.509 145.306,197.371 143.962,198.114ZM90.193,195.34C90.093,197.82 89.997,200.3 89.907,202.78C89.818,205.22 89.734,207.66 89.673,210.1C89.652,210.963 89.633,211.826 89.624,212.689C89.621,213.049 89.62,213.408 89.622,213.768C89.624,213.969 89.628,214.17 89.639,214.37C89.642,214.408 89.642,214.408 89.646,214.446C89.656,214.602 89.663,214.642 89.652,214.799C89.632,215.093 89.549,215.383 89.409,215.642C89.269,215.902 89.074,216.132 88.84,216.311C88.653,216.454 88.441,216.566 88.217,216.638C87.535,216.86 86.769,216.708 86.223,216.243C86.044,216.09 85.89,215.907 85.772,215.703C85.654,215.499 85.57,215.275 85.526,215.043C85.478,214.787 85.472,214.522 85.464,214.263C85.453,213.867 85.453,213.47 85.455,213.073C85.46,212.047 85.483,211.022 85.508,209.997C85.583,206.974 85.692,203.953 85.806,200.932C86.13,192.293 86.511,183.655 86.91,175.019L86.925,174.843C86.935,174.785 86.943,174.726 86.956,174.669C86.981,174.554 87.016,174.441 87.061,174.331C87.284,173.781 87.743,173.344 88.304,173.148C88.471,173.09 88.645,173.053 88.822,173.039C88.88,173.034 88.939,173.034 88.998,173.032C89.057,173.034 89.116,173.037 89.175,173.04C89.233,173.048 89.292,173.053 89.35,173.063C89.525,173.094 89.695,173.146 89.856,173.22C90.396,173.466 90.813,173.944 90.985,174.512C91.036,174.682 91.066,174.857 91.073,175.034C91.075,175.093 91.072,175.152 91.072,175.211C90.983,177.148 90.895,179.086 90.808,181.023C90.665,184.228 90.524,187.433 90.388,190.638L117.218,177.94C117.266,177.92 117.313,177.898 117.362,177.879C117.459,177.842 117.558,177.812 117.66,177.789C117.761,177.767 117.864,177.752 117.968,177.745C118.02,177.741 118.072,177.742 118.124,177.74C118.176,177.742 118.227,177.745 118.279,177.747C118.417,177.763 118.452,177.764 118.587,177.795C118.891,177.867 119.177,178.007 119.419,178.203C119.581,178.334 119.723,178.489 119.839,178.661C119.955,178.834 120.045,179.024 120.104,179.223C120.301,179.877 120.159,180.602 119.73,181.133C119.599,181.295 119.444,181.437 119.271,181.553C119.156,181.63 119.124,181.643 119.001,181.706L90.193,195.34ZM58.167,173.058C58.778,173.069 59.387,173.1 59.995,173.156C61.647,173.309 63.282,173.623 64.888,174.035C66.512,174.452 68.11,174.971 69.679,175.56C71.29,176.165 72.872,176.844 74.425,177.583C75.648,178.165 76.857,178.78 78.033,179.454L78.079,179.48C78.211,179.565 78.247,179.582 78.368,179.683C78.549,179.834 78.704,180.017 78.824,180.22C78.975,180.473 79.07,180.759 79.103,181.052C79.129,181.287 79.115,181.525 79.061,181.755C78.926,182.334 78.541,182.836 78.017,183.117C77.861,183.201 77.695,183.265 77.523,183.306C77.294,183.362 77.055,183.378 76.82,183.354C76.51,183.323 76.219,183.219 75.951,183.063C75.723,182.933 75.494,182.806 75.264,182.68C73.558,181.758 71.805,180.922 70.015,180.175C68.225,179.428 66.395,178.769 64.526,178.251C63.2,177.883 61.853,177.586 60.488,177.405C59.43,177.264 58.359,177.192 57.291,177.235C56.613,177.262 55.937,177.335 55.273,177.473C54.759,177.58 54.255,177.728 53.767,177.922C53.413,178.063 53.068,178.226 52.734,178.409C52.477,178.549 52.226,178.701 51.984,178.865C51.802,178.987 51.625,179.116 51.454,179.252C50.514,179.996 49.697,180.966 49.341,182.127C49.286,182.306 49.243,182.488 49.212,182.672C49.165,182.948 49.145,183.228 49.152,183.508C49.166,184.067 49.253,184.627 49.422,185.16C49.637,185.837 49.989,186.461 50.435,187.013C50.945,187.645 51.564,188.182 52.221,188.655C52.972,189.195 53.778,189.66 54.602,190.077C55.989,190.781 57.427,191.377 58.869,191.955C59.834,192.342 60.801,192.722 61.765,193.11C62.058,193.229 62.35,193.35 62.642,193.471C63.225,193.716 63.806,193.965 64.382,194.228C64.764,194.403 65.144,194.583 65.52,194.77C65.847,194.932 66.172,195.101 66.494,195.275C68.397,196.309 70.218,197.591 71.551,199.321C72.038,199.952 72.454,200.638 72.78,201.366C73.097,202.075 73.327,202.822 73.468,203.586C73.706,204.873 73.692,206.197 73.502,207.489C73.273,209.045 72.756,210.563 71.889,211.882C71.154,213 70.182,213.95 69.061,214.679C67.165,215.91 64.918,216.494 62.682,216.674C62.345,216.7 62.008,216.718 61.67,216.728C61.234,216.74 60.798,216.739 60.363,216.724C59.83,216.707 59.297,216.671 58.767,216.618C58.094,216.55 57.424,216.455 56.758,216.335C55.916,216.184 55.081,215.993 54.257,215.763C53.123,215.447 52.007,215.06 50.927,214.592C50.015,214.197 49.126,213.744 48.286,213.211C47.59,212.769 46.923,212.27 46.338,211.686C46.032,211.381 45.748,211.051 45.503,210.694C45.358,210.484 45.217,210.264 45.126,210.024C44.871,209.355 44.983,208.582 45.42,208.013C45.563,207.826 45.739,207.664 45.937,207.535C46.134,207.407 46.354,207.312 46.583,207.257C46.813,207.201 47.051,207.185 47.286,207.209C47.817,207.264 48.315,207.527 48.661,207.933C48.699,207.978 48.735,208.025 48.769,208.073C48.836,208.166 48.89,208.268 48.956,208.362C48.995,208.415 49.035,208.466 49.077,208.517C49.279,208.752 49.51,208.96 49.753,209.152C50.02,209.365 50.303,209.559 50.592,209.739C51.474,210.29 52.424,210.728 53.394,211.099C54.267,211.432 55.163,211.709 56.071,211.931C57.289,212.23 58.532,212.435 59.783,212.523C60.822,212.596 61.869,212.589 62.903,212.465C64.147,212.315 65.398,211.996 66.491,211.368C66.911,211.126 67.305,210.838 67.654,210.501C67.876,210.287 68.079,210.054 68.26,209.805C69.008,208.778 69.347,207.519 69.449,206.267C69.49,205.763 69.491,205.256 69.433,204.754C69.364,204.172 69.215,203.601 68.976,203.066C68.335,201.632 67.109,200.561 65.819,199.717C65.206,199.316 64.565,198.956 63.912,198.625C63.149,198.239 62.371,197.884 61.585,197.547C59.982,196.861 58.353,196.239 56.736,195.588C56.444,195.469 56.152,195.349 55.86,195.228C55.278,194.983 54.699,194.734 54.125,194.472C53.65,194.254 53.179,194.028 52.713,193.791C52.342,193.603 51.975,193.405 51.612,193.199C49.692,192.107 47.877,190.729 46.636,188.874C46.43,188.567 46.241,188.248 46.071,187.919C45.563,186.939 45.232,185.873 45.082,184.78C44.959,183.89 44.946,182.985 45.084,182.097C45.158,181.615 45.275,181.14 45.43,180.679C45.531,180.379 45.649,180.085 45.781,179.798C46.732,177.739 48.432,176.096 50.371,174.959C50.73,174.748 51.1,174.553 51.477,174.376C52.024,174.119 52.589,173.897 53.166,173.718C54.656,173.253 56.219,173.071 57.776,173.056C57.907,173.056 58.037,173.057 58.167,173.058ZM103.508,195.495C103.621,195.506 103.732,195.519 103.843,195.545C104.136,195.614 104.413,195.746 104.65,195.932C104.77,196.025 104.874,196.132 104.973,196.246C105.127,196.443 105.272,196.646 105.421,196.846C105.546,197.015 105.672,197.183 105.798,197.352C106.429,198.191 107.065,199.026 107.711,199.853C108.999,201.503 110.321,203.126 111.675,204.722C113.027,206.316 114.411,207.884 115.825,209.425C116.534,210.198 117.251,210.962 117.973,211.722L118.049,211.806C118.112,211.884 118.129,211.903 118.185,211.986C118.312,212.172 118.409,212.38 118.469,212.597C118.54,212.851 118.562,213.118 118.534,213.38C118.473,213.944 118.177,214.47 117.725,214.814C117.576,214.928 117.41,215.021 117.236,215.091C117.061,215.161 116.877,215.207 116.69,215.228C116.466,215.252 116.237,215.24 116.017,215.192C115.723,215.127 115.444,214.999 115.204,214.817C115.113,214.748 115.032,214.671 114.952,214.591C114.657,214.281 114.362,213.969 114.069,213.658C113.336,212.874 112.607,212.086 111.888,211.29C110.45,209.698 109.043,208.079 107.668,206.431C106.29,204.78 104.946,203.102 103.636,201.397C102.979,200.542 102.333,199.679 101.692,198.812L101.628,198.719C101.575,198.634 101.56,198.614 101.514,198.524C101.411,198.324 101.341,198.106 101.307,197.883C101.206,197.206 101.452,196.506 101.955,196.042C102.093,195.914 102.249,195.806 102.416,195.72C102.617,195.617 102.835,195.547 103.058,195.513C103.157,195.498 103.183,195.499 103.283,195.492C103.395,195.49 103.395,195.49 103.508,195.495ZM233.965,116.2C234.326,116.213 234.682,116.257 235.032,116.344C236.452,116.694 237.646,117.634 238.577,118.731C238.731,118.912 238.879,119.099 239.021,119.29C239.198,119.527 239.366,119.772 239.526,120.021C239.721,120.325 239.903,120.636 240.075,120.953C240.281,121.333 240.471,121.722 240.648,122.116C241.177,123.298 241.584,124.534 241.897,125.79C242.276,127.314 242.518,128.872 242.642,130.438C242.821,132.71 242.761,135.007 242.444,137.265C242.186,139.105 241.756,140.929 241.099,142.669C240.901,143.192 240.683,143.706 240.44,144.21C240.256,144.591 240.058,144.965 239.845,145.331C239.692,145.593 239.531,145.85 239.361,146.101C239.224,146.303 239.082,146.501 238.933,146.695C238.019,147.887 236.832,148.949 235.378,149.414C235.188,149.475 234.994,149.525 234.798,149.564C234.484,149.625 234.164,149.657 233.844,149.657C233.524,149.657 233.204,149.625 232.89,149.564C232.694,149.525 232.5,149.475 232.31,149.414C230.856,148.949 229.67,147.887 228.755,146.695C228.606,146.501 228.464,146.303 228.328,146.101C228.158,145.85 227.997,145.593 227.844,145.331C227.63,144.965 227.432,144.591 227.249,144.21C227.006,143.706 226.787,143.192 226.59,142.669C225.932,140.929 225.502,139.105 225.244,137.265C224.928,135.007 224.867,132.71 225.047,130.438C225.171,128.872 225.412,127.314 225.792,125.79C226.105,124.534 226.512,123.298 227.04,122.116C227.217,121.722 227.407,121.333 227.613,120.953C227.785,120.636 227.968,120.325 228.162,120.021C228.322,119.772 228.49,119.528 228.667,119.29C228.809,119.099 228.957,118.912 229.111,118.731C230.043,117.634 231.237,116.694 232.656,116.344C233.007,116.257 233.363,116.213 233.723,116.2C233.845,116.198 233.844,116.198 233.965,116.2ZM281.323,116.2C281.684,116.213 282.041,116.257 282.392,116.344C283.811,116.694 285.006,117.634 285.937,118.731C286.091,118.912 286.239,119.099 286.381,119.29C286.558,119.528 286.726,119.772 286.886,120.021C287.081,120.325 287.263,120.636 287.435,120.953C287.641,121.333 287.831,121.722 288.008,122.116C288.511,123.242 288.904,124.416 289.21,125.609C289.616,127.191 289.871,128.811 290,130.438C290.18,132.71 290.119,135.007 289.803,137.265C289.545,139.105 289.116,140.929 288.458,142.669C288.261,143.192 288.042,143.706 287.8,144.209C287.616,144.591 287.418,144.965 287.205,145.33C287.052,145.592 286.891,145.85 286.721,146.101C286.584,146.303 286.442,146.501 286.294,146.695C285.379,147.887 284.192,148.95 282.737,149.414C282.547,149.475 282.353,149.525 282.157,149.564C281.843,149.625 281.523,149.657 281.202,149.657C280.882,149.657 280.563,149.625 280.248,149.564C280.052,149.525 279.859,149.475 279.668,149.414C278.214,148.949 277.028,147.887 276.113,146.695C275.965,146.501 275.822,146.303 275.686,146.101C275.516,145.85 275.355,145.593 275.202,145.331C274.988,144.965 274.791,144.591 274.607,144.21C274.364,143.706 274.145,143.192 273.948,142.669C273.29,140.929 272.861,139.105 272.603,137.265C272.286,135.007 272.225,132.71 272.405,130.438C272.529,128.872 272.77,127.314 273.15,125.79C273.463,124.534 273.87,123.298 274.399,122.116C274.575,121.722 274.766,121.333 274.972,120.953C275.143,120.636 275.326,120.325 275.521,120.021C275.68,119.772 275.848,119.527 276.025,119.29C276.167,119.099 276.315,118.912 276.469,118.731C277.401,117.634 278.595,116.694 280.014,116.344C280.365,116.257 280.721,116.213 281.082,116.2C281.203,116.198 281.202,116.198 281.323,116.2Z" style="fill:rgb(136,210,232);"/>
</svg>
