<?xml version="1.0" encoding="UTF-8" standalone="no"?><!DOCTYPE svg PUBLIC "-//W3C//DTD SVG 1.1//EN" "http://www.w3.org/Graphics/SVG/1.1/DTD/svg11.dtd"><svg width="100%" height="100%" viewBox="0 0 106 106" version="1.1" xmlns="http://www.w3.org/2000/svg" xmlns:xlink="http://www.w3.org/1999/xlink" xml:space="preserve" style="fill-rule:evenodd;clip-rule:evenodd;stroke-linejoin:round;stroke-miterlimit:1.41421;"><path id="About" d="M52.89,0.211c0.339,0.002 0.678,0.006 1.016,0.013c0.617,0.014 1.235,0.038 1.851,0.074c1.88,0.107 3.755,0.315 5.613,0.623c2.148,0.356 4.273,0.847 6.359,1.468c2.21,0.658 4.375,1.462 6.478,2.406c2.756,1.236 5.404,2.712 7.906,4.403c2.485,1.68 4.826,3.571 6.99,5.647c2.239,2.148 4.289,4.493 6.118,6.999c1.713,2.349 3.232,4.84 4.535,7.439c1.101,2.197 2.047,4.472 2.828,6.802c0.776,2.314 1.388,4.682 1.833,7.081c0.589,3.172 0.881,6.397 0.881,9.623c0,2.456 -0.169,4.912 -0.51,7.345c-0.341,2.431 -0.853,4.837 -1.531,7.196c-0.814,2.832 -1.87,5.594 -3.149,8.248c-1.378,2.859 -3.017,5.592 -4.887,8.155c-1.829,2.507 -3.879,4.851 -6.118,6.999c-2.355,2.259 -4.919,4.299 -7.649,6.085c-2.709,1.772 -5.581,3.294 -8.569,4.537c-3.29,1.369 -6.72,2.399 -10.22,3.071c-3.275,0.628 -6.61,0.941 -9.944,0.941c-3.335,0 -6.669,-0.313 -9.945,-0.941c-3.5,-0.672 -6.93,-1.702 -10.22,-3.071c-2.988,-1.243 -5.86,-2.765 -8.568,-4.537c-2.731,-1.786 -5.295,-3.826 -7.65,-6.085c-2.391,-2.293 -4.566,-4.812 -6.487,-7.511c-1.717,-2.415 -3.231,-4.974 -4.518,-7.643c-1.232,-2.556 -2.257,-5.213 -3.058,-7.936c-0.724,-2.458 -1.266,-4.97 -1.621,-7.508c-0.349,-2.489 -0.519,-5.002 -0.511,-7.515c0.01,-3.169 0.303,-6.337 0.881,-9.453c0.425,-2.293 1.004,-4.559 1.732,-6.775c0.8,-2.437 1.78,-4.815 2.929,-7.108c1.208,-2.411 2.603,-4.729 4.166,-6.926c1.829,-2.571 3.889,-4.978 6.147,-7.183c2.146,-2.095 4.469,-4.007 6.939,-5.709c2.617,-1.803 5.397,-3.369 8.297,-4.67c2.103,-0.944 4.269,-1.748 6.478,-2.406c2.139,-0.637 4.319,-1.136 6.521,-1.495c1.805,-0.293 3.626,-0.492 5.451,-0.596c0.617,-0.036 1.234,-0.06 1.851,-0.074c0.339,-0.007 0.677,-0.011 1.016,-0.013c0.113,0 0.226,0 0.339,0Zm-0.314,8c-0.812,0.004 -1.624,0.027 -2.436,0.074c-1.548,0.088 -3.092,0.257 -4.622,0.506c-1.866,0.303 -3.712,0.726 -5.523,1.265c-1.871,0.557 -3.705,1.239 -5.486,2.038c-2.254,1.011 -4.423,2.212 -6.478,3.583c-1.895,1.264 -3.693,2.673 -5.374,4.21c-2.009,1.837 -3.85,3.857 -5.494,6.027c-1.488,1.963 -2.813,4.05 -3.956,6.232c-0.986,1.882 -1.837,3.834 -2.543,5.837c-0.716,2.032 -1.284,4.117 -1.696,6.232c-0.56,2.87 -0.834,5.794 -0.825,8.718c0.007,2.037 0.15,4.073 0.433,6.09c0.301,2.15 0.76,4.277 1.373,6.36c0.679,2.306 1.547,4.556 2.591,6.721c1.168,2.424 2.558,4.741 4.143,6.914c1.552,2.128 3.292,4.118 5.192,5.94c1.999,1.917 4.175,3.649 6.492,5.165c2.296,1.501 4.729,2.791 7.262,3.845c2.786,1.159 5.691,2.032 8.654,2.6c2.779,0.533 5.608,0.798 8.438,0.798c2.829,0 5.658,-0.265 8.437,-0.798c2.964,-0.568 5.868,-1.441 8.654,-2.6c2.533,-1.054 4.967,-2.344 7.262,-3.845c2.318,-1.516 4.493,-3.248 6.492,-5.165c1.9,-1.822 3.64,-3.812 5.192,-5.94c1.586,-2.173 2.975,-4.49 4.144,-6.914c1.083,-2.247 1.977,-4.586 2.667,-6.984c0.574,-1.999 1.007,-4.038 1.296,-6.097c0.29,-2.065 0.433,-4.15 0.433,-6.234c0,-2.876 -0.274,-5.751 -0.824,-8.574c-0.404,-2.07 -0.956,-4.112 -1.652,-6.103c-0.715,-2.049 -1.581,-4.044 -2.588,-5.966c-1.205,-2.301 -2.613,-4.495 -4.2,-6.552c-1.581,-2.049 -3.34,-3.961 -5.249,-5.707c-1.682,-1.537 -3.48,-2.946 -5.375,-4.21c-2.055,-1.371 -4.224,-2.572 -6.478,-3.583c-1.781,-0.799 -3.615,-1.481 -5.486,-2.038c-1.766,-0.526 -3.566,-0.941 -5.385,-1.243c-1.575,-0.261 -3.165,-0.437 -4.76,-0.528c-0.811,-0.047 -1.624,-0.07 -2.436,-0.074c-0.096,0 -0.193,0 -0.289,0Zm2.902,29.51c0.152,0.003 0.303,0.01 0.455,0.026c0.291,0.03 0.579,0.089 0.856,0.183c0.253,0.085 0.496,0.198 0.721,0.341c0.165,0.103 0.32,0.222 0.463,0.353c0.105,0.096 0.203,0.199 0.294,0.308c0.07,0.082 0.135,0.168 0.197,0.256c0.42,0.601 0.653,1.315 0.778,2.033c0.023,0.126 0.042,0.253 0.058,0.381c0.022,0.177 0.039,0.355 0.051,0.533c0.014,0.212 0.022,0.424 0.024,0.636c0.001,0.092 0.002,0.184 0,0.277c-0.005,0.212 -0.019,0.424 -0.035,0.635c-0.03,0.405 -0.071,0.809 -0.116,1.212c-0.06,0.543 -0.127,1.084 -0.196,1.626c-0.129,0.954 -0.257,1.909 -0.385,2.864c-0.029,0.217 -0.058,0.434 -0.087,0.65c-0.127,0.94 -0.256,1.88 -0.384,2.82l-1.754,12.235l-0.427,2.733c-0.033,0.243 -0.066,0.485 -0.098,0.728c-0.115,0.875 -0.225,1.751 -0.315,2.628c-0.036,0.346 -0.068,0.692 -0.093,1.038c-0.019,0.254 -0.035,0.508 -0.04,0.763c-0.005,0.191 -0.003,0.383 0.015,0.574c0.009,0.095 0.022,0.19 0.042,0.283c0.011,0.054 0.025,0.108 0.042,0.16c0.01,0.032 0.022,0.064 0.036,0.095c0.009,0.019 0.018,0.037 0.028,0.055c0.006,0.009 0.012,0.019 0.018,0.028c0.005,0.007 0.01,0.013 0.015,0.019c0.007,0.008 0.014,0.016 0.023,0.022c0.017,0.011 0.039,0.013 0.058,0.015c0.014,0.002 0.027,0.002 0.04,0.002c0.029,0 0.057,0 0.085,-0.001c0.051,-0.002 0.101,-0.006 0.152,-0.01c0.088,-0.009 0.176,-0.022 0.262,-0.039c0.154,-0.031 0.305,-0.075 0.451,-0.13c0.242,-0.09 0.473,-0.208 0.691,-0.343c0.35,-0.217 0.672,-0.477 0.971,-0.758c0.328,-0.307 0.631,-0.641 0.916,-0.988c0.38,-0.464 0.73,-0.953 1.059,-1.455c0.279,-0.427 0.544,-0.864 0.797,-1.307c0.481,-0.841 0.919,-1.704 1.335,-2.579l0.051,-0.09c0.021,-0.028 0.04,-0.057 0.063,-0.083c0.046,-0.052 0.098,-0.098 0.157,-0.135c0.058,-0.038 0.122,-0.067 0.188,-0.087c0.133,-0.041 0.277,-0.043 0.411,-0.007c0.034,0.008 0.067,0.02 0.099,0.033c0.059,0.025 0.114,0.06 0.17,0.094c0.114,0.069 0.225,0.142 0.334,0.219c0.069,0.049 0.136,0.099 0.202,0.151c0.336,0.266 0.643,0.594 0.8,0.999c0.02,0.049 0.036,0.1 0.051,0.151c0.021,0.078 0.037,0.158 0.046,0.238c0.012,0.105 0.011,0.211 0.004,0.317c-0.011,0.154 -0.038,0.306 -0.074,0.456c-0.074,0.303 -0.187,0.596 -0.316,0.88c-0.163,0.358 -0.353,0.705 -0.556,1.043c-0.246,0.412 -0.511,0.813 -0.785,1.206c-0.343,0.493 -0.701,0.974 -1.068,1.449c-0.354,0.459 -0.718,0.91 -1.084,1.359c-0.132,0.161 -0.263,0.321 -0.397,0.48c-0.407,0.484 -0.827,0.958 -1.262,1.416c-0.353,0.373 -0.717,0.735 -1.092,1.085c-0.302,0.281 -0.611,0.553 -0.929,0.815c-0.251,0.207 -0.508,0.406 -0.77,0.598c-0.828,0.604 -1.719,1.131 -2.676,1.501c-0.888,0.343 -1.835,0.547 -2.789,0.537c-0.431,-0.004 -0.863,-0.062 -1.274,-0.194c-0.278,-0.09 -0.545,-0.214 -0.79,-0.373c-0.158,-0.102 -0.306,-0.218 -0.443,-0.347c-0.1,-0.094 -0.194,-0.194 -0.281,-0.3c-0.066,-0.08 -0.129,-0.163 -0.187,-0.248c-0.386,-0.565 -0.603,-1.228 -0.719,-1.897c-0.018,-0.1 -0.033,-0.2 -0.046,-0.3c-0.019,-0.146 -0.034,-0.292 -0.045,-0.438c-0.016,-0.198 -0.025,-0.396 -0.028,-0.594c-0.002,-0.09 -0.003,-0.18 -0.002,-0.271c0.002,-0.177 0.011,-0.355 0.021,-0.532c0.021,-0.345 0.051,-0.69 0.084,-1.035c0.043,-0.459 0.093,-0.919 0.145,-1.378c0.066,-0.576 0.135,-1.152 0.208,-1.727c0.107,-0.847 0.217,-1.693 0.332,-2.538c0.162,-1.202 0.33,-2.404 0.5,-3.605l1.668,-11.63c0.142,-0.984 0.285,-1.967 0.427,-2.951c0.118,-0.814 0.24,-1.627 0.355,-2.441c0.016,-0.118 0.032,-0.235 0.047,-0.353c0.064,-0.509 0.116,-1.019 0.137,-1.532c0.012,-0.293 0.017,-0.588 -0.007,-0.881c-0.011,-0.133 -0.027,-0.265 -0.053,-0.395c-0.016,-0.077 -0.035,-0.153 -0.06,-0.228c-0.015,-0.043 -0.031,-0.087 -0.051,-0.128c-0.012,-0.026 -0.026,-0.05 -0.041,-0.074c-0.025,-0.039 -0.056,-0.081 -0.1,-0.101c-0.023,-0.011 -0.05,-0.016 -0.076,-0.018c-0.023,-0.003 -0.046,-0.003 -0.069,-0.003c-0.04,0.001 -0.079,0.002 -0.119,0.004c-0.066,0.004 -0.133,0.011 -0.199,0.021c-0.119,0.017 -0.236,0.043 -0.351,0.076c-0.204,0.058 -0.402,0.14 -0.591,0.236c-0.314,0.159 -0.607,0.358 -0.882,0.577c-0.35,0.279 -0.672,0.592 -0.976,0.92c-0.389,0.422 -0.747,0.871 -1.085,1.334c-0.359,0.492 -0.695,1.001 -1.015,1.519c-0.456,0.739 -0.878,1.497 -1.282,2.265l-0.055,0.09c-0.022,0.027 -0.043,0.055 -0.067,0.081c-0.048,0.05 -0.104,0.094 -0.164,0.129c-0.184,0.107 -0.408,0.131 -0.609,0.065c-0.067,-0.022 -0.13,-0.052 -0.189,-0.092c-0.06,-0.041 -0.114,-0.092 -0.167,-0.142c-0.075,-0.071 -0.148,-0.144 -0.218,-0.219c-0.312,-0.337 -0.57,-0.735 -0.688,-1.183c-0.033,-0.127 -0.055,-0.256 -0.064,-0.387c-0.009,-0.134 -0.005,-0.269 0.004,-0.403c0.013,-0.176 0.037,-0.351 0.072,-0.524c0.085,-0.426 0.231,-0.839 0.41,-1.234c0.205,-0.45 0.454,-0.879 0.726,-1.29c0.421,-0.636 0.898,-1.233 1.401,-1.804c0.605,-0.687 1.25,-1.339 1.915,-1.969c0.603,-0.571 1.223,-1.126 1.861,-1.659c0.648,-0.54 1.316,-1.058 2.014,-1.533c0.438,-0.298 0.889,-0.579 1.354,-0.834c0.375,-0.205 0.76,-0.392 1.157,-0.553c0.55,-0.222 1.125,-0.394 1.716,-0.468c0.163,-0.02 0.327,-0.032 0.492,-0.037c0.055,-0.001 0.11,-0.001 0.166,-0.001Zm1.537,-12.775c0.193,0.004 0.386,0.017 0.578,0.044c0.446,0.063 0.882,0.194 1.289,0.386c0.465,0.219 0.891,0.517 1.257,0.878c0.365,0.36 0.67,0.782 0.897,1.243c0.183,0.37 0.315,0.765 0.392,1.17c0.108,0.571 0.108,1.162 0,1.733c-0.091,0.478 -0.259,0.941 -0.494,1.366c-0.231,0.417 -0.527,0.797 -0.875,1.123c-0.401,0.377 -0.871,0.682 -1.38,0.892c-0.545,0.225 -1.133,0.34 -1.723,0.34c-0.59,0 -1.178,-0.115 -1.723,-0.34c-0.509,-0.21 -0.979,-0.514 -1.38,-0.892c-0.361,-0.338 -0.666,-0.736 -0.901,-1.171c-0.231,-0.429 -0.393,-0.895 -0.478,-1.375c-0.094,-0.534 -0.094,-1.085 0,-1.619c0.076,-0.426 0.211,-0.84 0.402,-1.227c0.227,-0.461 0.532,-0.883 0.898,-1.243c0.365,-0.361 0.792,-0.659 1.256,-0.878c0.39,-0.184 0.807,-0.311 1.233,-0.377c0.133,-0.021 0.267,-0.035 0.401,-0.044c0.078,-0.005 0.156,-0.007 0.233,-0.009c0.059,0 0.059,0 0.118,0Z" style="fill:#7b7b7b;"/></svg>