<?xml version="1.0" encoding="UTF-8" standalone="no"?>
<!DOCTYPE svg PUBLIC "-//W3C//DTD SVG 1.1//EN" "http://www.w3.org/Graphics/SVG/1.1/DTD/svg11.dtd">
<svg width="100%" height="100%" viewBox="0 0 433 488" version="1.1" xmlns="http://www.w3.org/2000/svg" xmlns:xlink="http://www.w3.org/1999/xlink" xml:space="preserve" style="fill-rule:evenodd;clip-rule:evenodd;stroke-linejoin:round;stroke-miterlimit:1.41421;">
    <g id="Account" transform="matrix(1,0,0,1,-161.706,-134.395)">
        <path d="M563.577,621.953L192.329,621.953C175.427,621.953 161.706,608.231 161.706,591.33L161.706,469.117C161.706,398.568 285.021,374.01 304.555,374.01C304.555,374.01 325.054,392.643 377.953,392.908C430.852,392.643 451.351,374.01 451.351,374.01C470.885,374.01 594.2,398.568 594.2,469.117L594.2,591.33C594.2,608.231 580.479,621.952 563.577,621.953ZM377.953,134.395C441.457,134.395 493.015,185.952 493.015,249.456C493.015,312.961 441.457,364.518 377.953,364.518C314.448,364.518 262.891,312.961 262.891,249.456C262.891,185.952 314.448,134.395 377.953,134.395Z"/>
    </g>
</svg>
