<?xml version="1.0" encoding="UTF-8" standalone="no"?><!DOCTYPE svg PUBLIC "-//W3C//DTD SVG 1.1//EN" "http://www.w3.org/Graphics/SVG/1.1/DTD/svg11.dtd"><svg width="100%" height="100%" viewBox="0 0 105 118" version="1.1" xmlns="http://www.w3.org/2000/svg" xmlns:xlink="http://www.w3.org/1999/xlink" xml:space="preserve" style="fill-rule:evenodd;clip-rule:evenodd;stroke-linejoin:round;stroke-miterlimit:1.41421;"><path id="Account" d="M96.618,117.109l-89.099,0c-4.056,0 -7.35,-3.294 -7.35,-7.35l0,-29.331c0,-16.932 29.596,-22.826 34.284,-22.826c0,0 4.92,4.472 17.616,4.536c12.695,-0.064 17.615,-4.536 17.615,-4.536c4.688,0 34.284,5.894 34.284,22.826l0,29.331c0,4.056 -3.293,7.35 -7.35,7.35Zm-44.549,-117.014c15.241,0 27.615,12.373 27.615,27.615c0,15.241 -12.374,27.614 -27.615,27.614c-15.241,0 -27.615,-12.373 -27.615,-27.614c0,-15.242 12.374,-27.615 27.615,-27.615Z" style="fill:#7b7b7b;"/></svg>