<?xml version="1.0" encoding="UTF-8" standalone="no"?>
<!DOCTYPE svg PUBLIC "-//W3C//DTD SVG 1.1//EN" "http://www.w3.org/Graphics/SVG/1.1/DTD/svg11.dtd">
<svg width="100%" height="100%" viewBox="0 0 410 410" version="1.1" xmlns="http://www.w3.org/2000/svg" xmlns:xlink="http://www.w3.org/1999/xlink" xml:space="preserve" style="fill-rule:evenodd;clip-rule:evenodd;stroke-linejoin:round;stroke-miterlimit:1.41421;">
    <g transform="matrix(1,0,0,1,-4994.33,-1171.16)">
        <path d="M5199.81,1171.16C5203.53,1171.18 5207.26,1171.29 5210.98,1171.5C5218.51,1171.93 5226.03,1172.78 5233.47,1174.04C5242.87,1175.62 5252.15,1177.87 5261.23,1180.76C5268.58,1183.1 5275.81,1185.86 5282.85,1189.02C5293.77,1193.92 5304.26,1199.79 5314.16,1206.52C5321.95,1211.82 5329.39,1217.67 5336.38,1223.99C5344.44,1231.26 5351.91,1239.17 5358.72,1247.62C5367.24,1258.2 5374.71,1269.61 5380.97,1281.66C5385.28,1289.95 5389.03,1298.54 5392.16,1307.35C5395.7,1317.29 5398.46,1327.51 5400.42,1337.87C5402.71,1350 5403.89,1362.33 5403.96,1374.67C5404.02,1384.67 5403.37,1394.68 5401.98,1404.59C5400.74,1413.44 5398.92,1422.2 5396.53,1430.81C5393.29,1442.48 5389.01,1453.86 5383.75,1464.77C5379,1474.61 5373.47,1484.07 5367.21,1493.03C5359.47,1504.11 5350.64,1514.44 5340.88,1523.8C5332.59,1531.74 5323.65,1538.99 5314.16,1545.45C5302.71,1553.23 5290.48,1559.86 5277.7,1565.17C5265.28,1570.34 5252.34,1574.27 5239.14,1576.89C5225.98,1579.5 5212.56,1580.8 5199.15,1580.8C5185.73,1580.8 5172.32,1579.5 5159.15,1576.89C5145.95,1574.27 5133.02,1570.34 5120.59,1565.17C5107.81,1559.86 5095.58,1553.23 5084.14,1545.45C5074.65,1538.99 5065.7,1531.74 5057.41,1523.8C5047.65,1514.44 5038.82,1504.11 5031.08,1493.03C5024.83,1484.07 5019.3,1474.61 5014.55,1464.77C5009.29,1453.86 5005,1442.48 5001.76,1430.81C4999.37,1422.2 4997.55,1413.44 4996.32,1404.59C4994.93,1394.68 4994.27,1384.67 4994.33,1374.67C4994.41,1362.33 4995.59,1350 4997.88,1337.87C4999.83,1327.51 5002.59,1317.29 5006.13,1307.35C5009.27,1298.54 5013.01,1289.95 5017.32,1281.66C5022.83,1271.07 5029.27,1260.96 5036.53,1251.49C5043.89,1241.91 5052.08,1232.97 5061,1224.81C5068.26,1218.17 5076,1212.05 5084.14,1206.52C5094.03,1199.79 5104.52,1193.92 5115.44,1189.02C5122.49,1185.86 5129.71,1183.1 5137.07,1180.76C5146.15,1177.87 5155.43,1175.62 5164.82,1174.04C5172.27,1172.78 5179.78,1171.93 5187.32,1171.5C5191.04,1171.29 5194.76,1171.18 5198.49,1171.16C5198.93,1171.16 5199.37,1171.16 5199.81,1171.16ZM5199.7,1204.5L5198.59,1204.5C5195.47,1204.51 5192.34,1204.6 5189.22,1204.78C5182.91,1205.14 5176.61,1205.85 5170.38,1206.9C5162.52,1208.23 5154.76,1210.11 5147.17,1212.53C5141.02,1214.48 5134.98,1216.79 5129.09,1219.43C5113.52,1226.42 5099.01,1235.76 5086.18,1247.01C5071.19,1260.16 5058.48,1275.91 5048.86,1293.38C5045.18,1300.06 5041.93,1306.99 5039.18,1314.11C5035.68,1323.14 5032.95,1332.46 5031.04,1341.95C5027.2,1361.01 5026.63,1380.72 5029.33,1399.97C5030.68,1409.63 5032.86,1419.18 5035.85,1428.46C5038.19,1435.76 5041.04,1442.9 5044.35,1449.82C5048.67,1458.85 5053.78,1467.5 5059.61,1475.63C5065.8,1484.29 5072.8,1492.37 5080.49,1499.74C5087.43,1506.4 5094.93,1512.48 5102.88,1517.89C5112.46,1524.4 5122.7,1529.95 5133.4,1534.4C5143.78,1538.72 5154.6,1542.01 5165.64,1544.2C5176.67,1546.38 5187.91,1547.47 5199.15,1547.47C5210.39,1547.47 5221.63,1546.38 5232.65,1544.2C5243.69,1542.01 5254.51,1538.72 5264.9,1534.4C5275.59,1529.95 5285.83,1524.4 5295.41,1517.89C5303.37,1512.48 5310.86,1506.4 5317.81,1499.74C5325.99,1491.89 5333.39,1483.24 5339.88,1473.95C5345.11,1466.44 5349.75,1458.52 5353.72,1450.28C5358.28,1440.85 5361.95,1430.99 5364.69,1420.88C5366.51,1414.18 5367.91,1407.37 5368.89,1400.5C5370.11,1392.02 5370.68,1383.44 5370.63,1374.87C5370.57,1364.54 5369.58,1354.21 5367.66,1344.05C5366.03,1335.38 5363.72,1326.84 5360.76,1318.53C5358.14,1311.16 5355,1303.98 5351.39,1297.03C5346.15,1286.95 5339.89,1277.39 5332.76,1268.54C5327.06,1261.45 5320.79,1254.82 5314.04,1248.72C5308.17,1243.42 5301.95,1238.53 5295.41,1234.08C5287.12,1228.45 5278.35,1223.54 5269.21,1219.43C5263.32,1216.79 5257.28,1214.48 5251.12,1212.53C5243.53,1210.11 5235.77,1208.23 5227.92,1206.9C5221.68,1205.85 5215.39,1205.14 5209.07,1204.78C5205.95,1204.6 5202.83,1204.51 5199.7,1204.5ZM5172.39,1375.98L5119.12,1322.71C5118.89,1322.47 5118.66,1322.24 5118.44,1321.99C5118,1321.5 5117.58,1320.99 5117.19,1320.45C5115.83,1318.58 5114.82,1316.46 5114.22,1314.23C5113.71,1312.32 5113.5,1310.32 5113.61,1308.35C5113.74,1305.7 5114.44,1303.1 5115.64,1300.75C5116.69,1298.69 5118.12,1296.82 5119.84,1295.28C5121.07,1294.17 5122.44,1293.23 5123.91,1292.48C5125.68,1291.58 5127.58,1290.96 5129.54,1290.65C5130.19,1290.55 5130.85,1290.48 5131.51,1290.44C5131.84,1290.42 5132.17,1290.42 5132.5,1290.42C5132.83,1290.42 5133.16,1290.43 5133.49,1290.44C5133.82,1290.47 5134.15,1290.49 5134.48,1290.52C5135.46,1290.62 5136.44,1290.81 5137.39,1291.06C5139.63,1291.66 5141.75,1292.67 5143.62,1294.03C5144.15,1294.42 5144.67,1294.83 5145.16,1295.28C5145.4,1295.5 5145.64,1295.73 5145.88,1295.96L5199.15,1349.23L5252.42,1295.96C5252.66,1295.73 5252.89,1295.5 5253.14,1295.28C5253.87,1294.61 5254.66,1294.01 5255.49,1293.47C5257.71,1292.03 5260.23,1291.06 5262.84,1290.65C5263.49,1290.55 5264.15,1290.48 5264.81,1290.44C5265.14,1290.42 5265.47,1290.42 5265.8,1290.42C5266.13,1290.42 5266.46,1290.43 5266.79,1290.44C5267.11,1290.47 5267.44,1290.49 5267.77,1290.52C5268.43,1290.59 5269.08,1290.69 5269.73,1290.83C5271.67,1291.24 5273.54,1291.96 5275.26,1292.95C5276.97,1293.94 5278.53,1295.2 5279.86,1296.68C5280.96,1297.9 5281.9,1299.28 5282.65,1300.75C5283.85,1303.1 5284.55,1305.7 5284.69,1308.35C5284.81,1310.65 5284.5,1312.98 5283.79,1315.18C5283.18,1317.07 5282.27,1318.85 5281.1,1320.45C5280.71,1320.99 5280.3,1321.5 5279.86,1321.99C5279.63,1322.24 5279.4,1322.47 5279.17,1322.71L5225.9,1375.98L5279.17,1429.26C5279.4,1429.5 5279.63,1429.73 5279.86,1429.98C5280.3,1430.46 5280.71,1430.98 5281.1,1431.51C5282.27,1433.12 5283.18,1434.9 5283.79,1436.79C5284.5,1438.99 5284.81,1441.31 5284.69,1443.62C5284.57,1445.93 5284.02,1448.22 5283.08,1450.33C5282.41,1451.84 5281.54,1453.26 5280.5,1454.54C5278.84,1456.59 5276.74,1458.29 5274.39,1459.49C5272.03,1460.69 5269.43,1461.39 5266.79,1461.53C5264.81,1461.63 5262.81,1461.42 5260.9,1460.91C5258.67,1460.31 5256.55,1459.3 5254.68,1457.94C5254.14,1457.55 5253.63,1457.13 5253.14,1456.69C5252.89,1456.47 5252.66,1456.24 5252.42,1456.01L5199.15,1402.74L5145.88,1456.01C5145.64,1456.24 5145.4,1456.47 5145.16,1456.69C5144.67,1457.13 5144.15,1457.55 5143.62,1457.94C5141.75,1459.3 5139.63,1460.31 5137.39,1460.91C5135.48,1461.42 5133.49,1461.63 5131.51,1461.53C5129.86,1461.44 5128.22,1461.14 5126.65,1460.63C5124.14,1459.81 5121.8,1458.46 5119.84,1456.69C5117.87,1454.92 5116.29,1452.74 5115.22,1450.33C5114.27,1448.22 5113.73,1445.93 5113.61,1443.62C5113.48,1441.31 5113.79,1438.99 5114.51,1436.79C5115.12,1434.9 5116.03,1433.12 5117.19,1431.51C5117.58,1430.98 5118,1430.46 5118.44,1429.98C5118.66,1429.73 5118.89,1429.5 5119.12,1429.26L5172.39,1375.98Z" style="fill:rgb(123,123,123);"/>
    </g>
</svg>
