<?xml version="1.0" encoding="UTF-8" standalone="no"?><!DOCTYPE svg PUBLIC "-//W3C//DTD SVG 1.1//EN" "http://www.w3.org/Graphics/SVG/1.1/DTD/svg11.dtd"><svg width="100%" height="100%" viewBox="0 0 47 63" version="1.1" xmlns="http://www.w3.org/2000/svg" xmlns:xlink="http://www.w3.org/1999/xlink" xml:space="preserve" style="fill-rule:evenodd;clip-rule:evenodd;stroke-linejoin:round;stroke-miterlimit:1.41421;"><path id="Help" d="M29.927,43.346l-15.917,0l0,-1.592c0,-2.709 0.307,-4.908 0.922,-6.597c0.614,-1.69 1.528,-3.233 2.743,-4.629c1.215,-1.396 3.944,-3.853 8.189,-7.372c2.262,-1.843 3.393,-3.532 3.393,-5.068c0,-1.536 -0.454,-2.73 -1.362,-3.581c-0.907,-0.852 -2.282,-1.278 -4.125,-1.278c-1.983,0 -3.624,0.656 -4.922,1.969c-1.299,1.312 -2.129,3.602 -2.492,6.869l-16.252,-2.01c0.558,-5.976 2.729,-10.786 6.513,-14.43c3.784,-3.644 9.585,-5.466 17.404,-5.466c6.087,0 11.002,1.27 14.744,3.811c5.082,3.435 7.623,8.015 7.623,13.739c0,2.374 -0.656,4.663 -1.968,6.869c-1.313,2.206 -3.994,4.901 -8.043,8.084c-2.82,2.234 -4.6,4.029 -5.34,5.383c-0.74,1.354 -1.11,3.12 -1.11,5.299Zm-16.462,4.23l17.048,0l0,15.037l-17.048,0l0,-15.037Z" style="fill:#7b7b7b;fill-rule:nonzero;"/></svg>