<?xml version="1.0" encoding="UTF-8" standalone="no"?><!DOCTYPE svg PUBLIC "-//W3C//DTD SVG 1.1//EN" "http://www.w3.org/Graphics/SVG/1.1/DTD/svg11.dtd"><svg width="100%" height="100%" viewBox="0 0 130 120" version="1.1" xmlns="http://www.w3.org/2000/svg" xmlns:xlink="http://www.w3.org/1999/xlink" xml:space="preserve" style="fill-rule:evenodd;clip-rule:evenodd;stroke-linejoin:round;stroke-miterlimit:1.41421;"><path id="Home" d="M69.537,31.737c-2.768,-2.768 -7.255,-2.768 -10.022,0c-10.747,10.746 -35.508,35.507 -41.338,41.337c-0.797,0.798 -1.245,1.879 -1.245,3.007c0,6.545 0,29.583 0,39.186c0,1.128 0.448,2.21 1.245,3.007c0.798,0.797 1.879,1.245 3.007,1.245c6.045,0 17.06,0 23.105,0c2.348,0 4.252,-1.903 4.252,-4.252c0,-7.668 0,-23.728 0,-31.396c0,-2.348 1.904,-4.252 4.252,-4.252l23.466,0c2.348,0 4.252,1.904 4.252,4.252c0,7.668 0,23.728 0,31.396c0,2.349 1.903,4.252 4.252,4.252c6.045,0 17.06,0 23.105,0c1.128,0 2.209,-0.448 3.007,-1.245c0.797,-0.797 1.245,-1.879 1.245,-3.007c0,-9.603 0,-32.641 0,-39.186c0,-1.128 -0.448,-2.209 -1.245,-3.007c-5.83,-5.83 -30.591,-30.591 -41.338,-41.337Zm-58.113,39.822c-1.664,1.639 -4.339,1.629 -5.99,-0.023c-1.271,-1.27 -2.751,-2.75 -4.024,-4.023c-0.797,-0.797 -1.245,-1.879 -1.245,-3.007c0,-1.127 0.448,-2.209 1.245,-3.006c11.015,-11.015 49.094,-49.094 60.109,-60.109c0.798,-0.798 1.879,-1.246 3.007,-1.246c1.128,0 2.209,0.448 3.007,1.246c11.015,11.015 49.094,49.094 60.109,60.109c0.797,0.797 1.245,1.879 1.245,3.006c0,1.128 -0.448,2.21 -1.245,3.007c-1.266,1.266 -2.736,2.735 -4.001,4.001c-0.798,0.798 -1.879,1.245 -3.007,1.245c-1.128,0 -2.209,-0.447 -3.006,-1.245c-9.692,-9.691 -40.04,-40.04 -49.7,-49.7c-1.652,-1.651 -4.327,-1.661 -5.991,-0.022c-9.795,9.65 -40.718,40.117 -50.513,49.767Zm75.605,-65.364c0,-2.349 1.904,-4.252 4.252,-4.252c2.947,0 6.855,0 9.801,0c2.349,0 4.252,1.903 4.252,4.252c0,7.255 0,21.424 0,23.234c0,0.311 -0.187,0.59 -0.473,0.709c-0.287,0.119 -0.617,0.053 -0.836,-0.166c-3.722,-3.722 -14.243,-14.243 -16.547,-16.547c-0.287,-0.287 -0.449,-1.084 -0.449,-1.084c0,0 0,-3.273 0,-6.146Z" style="fill:#7b7b7b;"/></svg>