<?xml version="1.0" encoding="UTF-8" standalone="no"?><!DOCTYPE svg PUBLIC "-//W3C//DTD SVG 1.1//EN" "http://www.w3.org/Graphics/SVG/1.1/DTD/svg11.dtd"><svg width="100%" height="100%" viewBox="0 0 130 90" version="1.1" xmlns="http://www.w3.org/2000/svg" xmlns:xlink="http://www.w3.org/1999/xlink" xml:space="preserve" style="fill-rule:evenodd;clip-rule:evenodd;stroke-linejoin:round;stroke-miterlimit:1.41421;"><path id="Leaderboard" d="M7.402,75.389c0.953,0 1.774,-0.28 2.464,-0.84c0.689,-0.559 1.033,-1.362 1.033,-2.409c0,-0.798 -0.274,-1.485 -0.824,-2.06c-0.549,-0.575 -1.29,-0.863 -2.223,-0.863c-0.632,0 -1.152,0.089 -1.562,0.265c-0.409,0.176 -0.733,0.409 -0.971,0.699c-0.239,0.29 -0.464,0.663 -0.677,1.119c-0.212,0.456 -0.406,0.886 -0.582,1.291c-0.104,0.217 -0.291,0.388 -0.56,0.513c-0.27,0.124 -0.58,0.186 -0.933,0.186c-0.414,0 -0.795,-0.168 -1.142,-0.505c-0.347,-0.337 -0.521,-0.785 -0.521,-1.345c0,-0.539 0.163,-1.106 0.49,-1.702c0.326,-0.596 0.803,-1.163 1.43,-1.702c0.627,-0.539 1.407,-0.972 2.339,-1.298c0.933,-0.326 1.974,-0.49 3.125,-0.49c1.005,0 1.922,0.138 2.751,0.412c0.829,0.275 1.549,0.671 2.161,1.189c0.611,0.519 1.072,1.12 1.383,1.804c0.311,0.684 0.467,1.419 0.467,2.207c0,1.036 -0.226,1.925 -0.677,2.666c-0.45,0.741 -1.095,1.464 -1.935,2.168c0.808,0.436 1.49,0.933 2.044,1.493c0.555,0.559 0.972,1.179 1.252,1.857c0.279,0.679 0.419,1.412 0.419,2.2c0,0.943 -0.189,1.855 -0.567,2.736c-0.378,0.881 -0.935,1.666 -1.671,2.355c-0.736,0.689 -1.609,1.228 -2.619,1.617c-1.011,0.388 -2.127,0.582 -3.35,0.582c-1.244,0 -2.358,-0.222 -3.342,-0.668c-0.985,-0.446 -1.796,-1.003 -2.433,-1.671c-0.637,-0.668 -1.119,-1.36 -1.446,-2.075c-0.326,-0.715 -0.489,-1.306 -0.489,-1.772c0,-0.601 0.194,-1.086 0.582,-1.454c0.389,-0.368 0.874,-0.552 1.454,-0.552c0.29,0 0.57,0.086 0.839,0.257c0.27,0.171 0.446,0.375 0.529,0.614c0.539,1.44 1.116,2.51 1.733,3.21c0.617,0.699 1.485,1.049 2.604,1.049c0.642,0 1.262,-0.158 1.857,-0.474c0.596,-0.316 1.089,-0.785 1.477,-1.407c0.389,-0.622 0.583,-1.342 0.583,-2.161c0,-1.212 -0.332,-2.163 -0.995,-2.852c-0.663,-0.689 -1.585,-1.034 -2.767,-1.034c-0.207,0 -0.528,0.021 -0.964,0.062c-0.435,0.042 -0.715,0.063 -0.839,0.063c-0.57,0 -1.01,-0.143 -1.321,-0.428c-0.311,-0.285 -0.467,-0.681 -0.467,-1.189c0,-0.497 0.187,-0.899 0.56,-1.205c0.373,-0.305 0.928,-0.458 1.663,-0.458l0.638,0Zm113.861,-5.836c4.603,0 8.339,3.736 8.339,8.338c0,4.603 -3.736,8.339 -8.339,8.339l-86.42,0c-4.603,0 -8.339,-3.736 -8.339,-8.339c0,-4.602 3.736,-8.338 8.339,-8.338l86.42,0Zm-107.146,-13.205l-11.441,0c-0.777,0 -1.383,-0.215 -1.819,-0.645c-0.435,-0.43 -0.653,-0.935 -0.653,-1.515c0,-0.373 0.14,-0.868 0.42,-1.485c0.28,-0.616 0.586,-1.101 0.917,-1.453c1.379,-1.43 2.622,-2.656 3.731,-3.677c1.109,-1.02 1.902,-1.691 2.378,-2.013c0.85,-0.601 1.557,-1.204 2.122,-1.811c0.565,-0.606 0.995,-1.228 1.29,-1.865c0.296,-0.637 0.443,-1.262 0.443,-1.873c0,-0.663 -0.158,-1.257 -0.474,-1.78c-0.316,-0.523 -0.746,-0.93 -1.29,-1.22c-0.544,-0.29 -1.137,-0.435 -1.78,-0.435c-1.357,0 -2.425,0.595 -3.202,1.787c-0.104,0.156 -0.277,0.581 -0.521,1.275c-0.243,0.694 -0.518,1.228 -0.824,1.601c-0.305,0.373 -0.753,0.56 -1.344,0.56c-0.518,0 -0.948,-0.171 -1.29,-0.513c-0.342,-0.342 -0.513,-0.809 -0.513,-1.399c0,-0.715 0.16,-1.462 0.481,-2.239c0.322,-0.777 0.801,-1.482 1.438,-2.114c0.638,-0.632 1.446,-1.143 2.425,-1.531c0.98,-0.389 2.127,-0.583 3.444,-0.583c1.585,0 2.938,0.249 4.057,0.746c0.725,0.332 1.362,0.788 1.912,1.368c0.549,0.58 0.976,1.251 1.282,2.013c0.306,0.762 0.459,1.552 0.459,2.371c0,1.285 -0.319,2.453 -0.956,3.505c-0.638,1.052 -1.288,1.876 -1.951,2.472c-0.663,0.595 -1.775,1.531 -3.334,2.805c-1.56,1.275 -2.63,2.265 -3.21,2.969c-0.249,0.28 -0.503,0.617 -0.762,1.011l8.114,0c0.809,0 1.425,0.166 1.85,0.497c0.425,0.332 0.637,0.783 0.637,1.353c0,0.508 -0.168,0.938 -0.505,1.29c-0.337,0.352 -0.847,0.528 -1.531,0.528Zm107.146,-19.803c4.603,0 8.339,3.737 8.339,8.339c0,4.603 -3.736,8.339 -8.339,8.339l-86.42,0c-4.603,0 -8.339,-3.736 -8.339,-8.339c0,-4.602 3.736,-8.339 8.339,-8.339l86.42,0Zm-114.079,-15.543l0,-14.146c-2.632,2.021 -4.404,3.031 -5.316,3.031c-0.436,0 -0.822,-0.173 -1.158,-0.52c-0.337,-0.348 -0.506,-0.749 -0.506,-1.205c0,-0.529 0.166,-0.917 0.498,-1.166c0.331,-0.249 0.917,-0.57 1.756,-0.964c1.254,-0.591 2.257,-1.212 3.008,-1.865c0.752,-0.653 1.418,-1.384 1.998,-2.192c0.58,-0.808 0.958,-1.306 1.135,-1.492c0.176,-0.187 0.507,-0.28 0.994,-0.28c0.55,0 0.99,0.212 1.322,0.637c0.331,0.425 0.497,1.011 0.497,1.757l0,17.799c0,2.083 -0.71,3.124 -2.129,3.124c-0.633,0 -1.14,-0.212 -1.524,-0.637c-0.383,-0.425 -0.575,-1.052 -0.575,-1.881Zm114.079,-17.479c4.603,0 8.339,3.736 8.339,8.338c0,4.603 -3.736,8.339 -8.339,8.339l-86.42,0c-4.603,0 -8.339,-3.736 -8.339,-8.339c0,-4.602 3.736,-8.338 8.339,-8.338l86.42,0Z" style="fill:#7b7b7b;"/></svg>