<?xml version="1.0" encoding="UTF-8" standalone="no"?>
<!DOCTYPE svg PUBLIC "-//W3C//DTD SVG 1.1//EN" "http://www.w3.org/Graphics/SVG/1.1/DTD/svg11.dtd">
<svg width="100%" height="100%" viewBox="0 0 410 410" version="1.1" xmlns="http://www.w3.org/2000/svg" xmlns:xlink="http://www.w3.org/1999/xlink" xml:space="preserve" style="fill-rule:evenodd;clip-rule:evenodd;stroke-linejoin:round;stroke-miterlimit:1.41421;">
    <g transform="matrix(1,0,0,1,-4030.09,-1171.16)">
        <path d="M4235.57,1171.16C4239.29,1171.18 4243.02,1171.29 4246.74,1171.5C4253.85,1171.91 4260.94,1172.68 4267.97,1173.83C4276.34,1175.19 4284.63,1177.07 4292.77,1179.47C4301.59,1182.06 4310.23,1185.26 4318.61,1189.02C4329.53,1193.92 4340.02,1199.79 4349.92,1206.52C4358.06,1212.06 4365.79,1218.17 4373.05,1224.81C4382.73,1233.66 4391.56,1243.43 4399.38,1253.95C4406.25,1263.2 4412.35,1273.03 4417.58,1283.31C4422.49,1292.96 4426.63,1303 4429.94,1313.31C4432.53,1321.36 4434.61,1329.56 4436.18,1337.87C4438.67,1351.08 4439.84,1364.53 4439.72,1377.96C4439.64,1386.44 4439.04,1394.92 4437.91,1403.32C4436.7,1412.39 4434.88,1421.38 4432.46,1430.2C4429.31,1441.68 4425.15,1452.89 4420.04,1463.64C4415.27,1473.7 4409.67,1483.37 4403.32,1492.52C4395.73,1503.46 4387.08,1513.67 4377.53,1522.94C4368.99,1531.22 4359.75,1538.76 4349.92,1545.45C4338.65,1553.12 4326.61,1559.66 4314.04,1564.93C4301.44,1570.22 4288.31,1574.23 4274.9,1576.89C4261.96,1579.46 4248.77,1580.76 4235.57,1580.8C4222.36,1580.84 4209.14,1579.63 4196.17,1577.14C4182.74,1574.56 4169.57,1570.63 4156.93,1565.41C4144.7,1560.37 4132.97,1554.13 4121.95,1546.83C4111.86,1540.14 4102.37,1532.57 4093.62,1524.22C4085.17,1516.16 4077.41,1507.39 4070.44,1498.02C4062.82,1487.77 4056.16,1476.81 4050.58,1465.33C4045.75,1455.38 4041.73,1445.05 4038.57,1434.45C4035.72,1424.89 4033.58,1415.11 4032.17,1405.23C4030.68,1394.89 4030,1384.45 4030.1,1374C4030.21,1362.53 4031.27,1351.06 4033.29,1339.76C4035.11,1329.57 4037.71,1319.52 4041.06,1309.72C4044.09,1300.87 4047.74,1292.22 4051.96,1283.86C4057.24,1273.39 4063.44,1263.37 4070.44,1253.95C4077.41,1244.58 4085.17,1235.81 4093.62,1227.75C4101.48,1220.25 4109.94,1213.38 4118.88,1207.22C4128.9,1200.31 4139.55,1194.29 4150.64,1189.28C4159.01,1185.49 4167.64,1182.27 4176.44,1179.65C4184.77,1177.17 4193.27,1175.22 4201.85,1173.83C4208.88,1172.68 4215.97,1171.91 4223.08,1171.5C4225.26,1171.38 4227.45,1171.29 4229.63,1171.23C4230.95,1171.2 4232.27,1171.18 4233.59,1171.17C4234.25,1171.16 4234.91,1171.16 4235.57,1171.16ZM4234.35,1204.5C4231.23,1204.51 4228.1,1204.6 4224.98,1204.78C4218.67,1205.14 4212.37,1205.85 4206.14,1206.9C4198.28,1208.23 4190.52,1210.11 4182.93,1212.53C4176.78,1214.48 4170.74,1216.79 4164.85,1219.43C4154.61,1224.03 4144.82,1229.64 4135.68,1236.14C4127.42,1242.02 4119.69,1248.62 4112.59,1255.85C4105.85,1262.71 4099.68,1270.13 4094.18,1278.02C4087.95,1286.94 4082.57,1296.46 4078.14,1306.4C4074.38,1314.87 4071.3,1323.65 4068.96,1332.63C4066.88,1340.57 4065.39,1348.67 4064.48,1356.83C4063.83,1362.63 4063.49,1368.48 4063.43,1374.32C4063.36,1381.27 4063.71,1388.23 4064.48,1395.14C4065.19,1401.54 4066.27,1407.9 4067.7,1414.19C4069.84,1423.6 4072.79,1432.82 4076.49,1441.74C4078.96,1447.66 4081.76,1453.44 4084.87,1459.04C4090.38,1468.97 4096.89,1478.35 4104.25,1487C4110.15,1493.93 4116.59,1500.39 4123.5,1506.31C4130.95,1512.68 4138.94,1518.42 4147.36,1523.44C4154.36,1527.61 4161.65,1531.27 4169.16,1534.4C4179.88,1538.86 4191.05,1542.21 4202.45,1544.4C4213.14,1546.45 4224.02,1547.47 4234.91,1547.47C4246.15,1547.47 4257.39,1546.38 4268.42,1544.2C4279.45,1542.01 4290.27,1538.72 4300.66,1534.4C4311.35,1529.95 4321.59,1524.4 4331.17,1517.89C4339.12,1512.48 4346.62,1506.4 4353.57,1499.74C4361.38,1492.25 4368.48,1484.03 4374.75,1475.21C4380.35,1467.34 4385.29,1458.99 4389.48,1450.29C4392.89,1443.23 4395.81,1435.93 4398.21,1428.46C4401.19,1419.18 4403.38,1409.63 4404.73,1399.97C4407.42,1380.72 4406.85,1361.01 4403.01,1341.95C4401.24,1333.15 4398.77,1324.48 4395.62,1316.07C4393.13,1309.4 4390.22,1302.88 4386.91,1296.57C4381.4,1286.05 4374.78,1276.1 4367.22,1266.94C4361.32,1259.79 4354.85,1253.12 4347.88,1247.01C4341.03,1241 4333.7,1235.54 4325.99,1230.69C4319.25,1226.46 4312.22,1222.69 4304.96,1219.43C4291.48,1213.38 4277.21,1209.1 4262.62,1206.73C4256.73,1205.77 4250.79,1205.12 4244.83,1204.78C4241.71,1204.6 4238.59,1204.51 4235.47,1204.5C4235.09,1204.5 4234.72,1204.5 4234.35,1204.5ZM4180.92,1274.72C4181.26,1274.74 4181.61,1274.75 4181.96,1274.78C4182.66,1274.85 4183.35,1274.96 4184.03,1275.11C4185.73,1275.49 4187.37,1276.14 4188.88,1277.03C4189.68,1277.51 4189.86,1277.66 4190.61,1278.21L4299.64,1362.82C4300.36,1363.41 4300.56,1363.54 4301.21,1364.2C4302.2,1365.19 4303.06,1366.3 4303.77,1367.5C4305.02,1369.61 4305.79,1371.98 4306.02,1374.42C4306.22,1376.5 4306.02,1378.62 4305.43,1380.63C4305.04,1381.97 4304.48,1383.27 4303.77,1384.47C4303.06,1385.67 4302.2,1386.78 4301.21,1387.77C4300.56,1388.43 4300.36,1388.56 4299.64,1389.15L4190.61,1473.76C4189.86,1474.31 4189.68,1474.46 4188.88,1474.94C4187.37,1475.83 4185.73,1476.48 4184.03,1476.86C4181.98,1477.31 4179.86,1477.38 4177.78,1477.05C4176.06,1476.78 4174.38,1476.24 4172.83,1475.44C4171.58,1474.81 4170.42,1474.02 4169.37,1473.1C4167.8,1471.71 4166.49,1470.03 4165.54,1468.16C4164.43,1465.98 4163.81,1463.56 4163.73,1461.12C4163.68,1459.37 4163.9,1457.62 4164.38,1455.94C4165.07,1453.6 4166.27,1451.41 4167.89,1449.57C4168.35,1449.05 4168.84,1448.55 4169.37,1448.09C4169.63,1447.86 4169.9,1447.65 4170.17,1447.42L4262.24,1375.98L4170.17,1304.54L4169.37,1303.88C4168.69,1303.24 4168.5,1303.1 4167.89,1302.4C4166.5,1300.82 4165.42,1298.99 4164.71,1297.02C4164.12,1295.38 4163.79,1293.64 4163.73,1291.9C4163.69,1290.5 4163.82,1289.1 4164.12,1287.74C4164.66,1285.35 4165.72,1283.09 4167.22,1281.16C4168.72,1279.23 4170.65,1277.63 4172.83,1276.53C4174.38,1275.73 4176.06,1275.19 4177.78,1274.91C4178.7,1274.77 4178.94,1274.78 4179.87,1274.72C4180.22,1274.72 4180.57,1274.72 4180.92,1274.72Z" style="fill:rgb(123,123,123);"/>
    </g>
</svg>
