<?xml version="1.0" encoding="UTF-8" standalone="no"?>
<!DOCTYPE svg PUBLIC "-//W3C//DTD SVG 1.1//EN" "http://www.w3.org/Graphics/SVG/1.1/DTD/svg11.dtd">
<svg width="100%" height="100%" viewBox="0 0 383 266" version="1.1" xmlns="http://www.w3.org/2000/svg" xmlns:xlink="http://www.w3.org/1999/xlink" xml:space="preserve" style="fill-rule:evenodd;clip-rule:evenodd;stroke-linejoin:round;stroke-miterlimit:1.41421;">
    <g id="Skip" transform="matrix(1.78626,0,0,1.78626,-3166.73,-1850.77)">
        <path d="M1987,1043.6C1987,1039.47 1983.65,1036.12 1979.52,1036.12C1975.39,1036.12 1972.04,1039.47 1972.04,1043.6L1972.04,1177.22C1972.04,1181.35 1975.39,1184.7 1979.52,1184.7C1983.65,1184.7 1987,1181.35 1987,1177.22L1987,1043.6ZM1857.42,1106.91C1858.41,1107.8 1858.97,1109.08 1858.97,1110.41C1858.97,1111.74 1858.41,1113.01 1857.42,1113.91C1843.99,1126.1 1799.07,1166.84 1780.73,1183.48C1779.35,1184.73 1777.35,1185.05 1775.64,1184.3C1773.93,1183.54 1772.83,1181.85 1772.83,1179.98C1772.83,1150.82 1772.83,1070 1772.83,1040.84C1772.83,1038.97 1773.93,1037.28 1775.64,1036.52C1777.35,1035.76 1779.35,1036.08 1780.73,1037.34C1799.07,1053.97 1843.99,1094.72 1857.42,1106.91ZM1957.03,1106.91C1958.01,1107.8 1958.58,1109.08 1958.58,1110.41C1958.58,1111.74 1958.01,1113.01 1957.03,1113.91C1943.59,1126.1 1898.67,1166.84 1880.33,1183.48C1878.95,1184.73 1876.95,1185.05 1875.25,1184.3C1873.54,1183.54 1872.44,1181.85 1872.44,1179.98C1872.44,1150.82 1872.44,1070 1872.44,1040.84C1872.44,1038.97 1873.54,1037.28 1875.25,1036.52C1876.95,1035.76 1878.95,1036.08 1880.33,1037.34C1898.67,1053.97 1943.59,1094.72 1957.03,1106.91Z" style="fill:rgb(123,123,123);"/>
    </g>
</svg>
