<?xml version="1.0" encoding="UTF-8" standalone="no"?>
<!DOCTYPE svg PUBLIC "-//W3C//DTD SVG 1.1//EN" "http://www.w3.org/Graphics/SVG/1.1/DTD/svg11.dtd">
<svg width="100%" height="100%" viewBox="0 0 757 756" version="1.1" xmlns="http://www.w3.org/2000/svg" xmlns:xlink="http://www.w3.org/1999/xlink" xml:space="preserve" style="fill-rule:evenodd;clip-rule:evenodd;stroke-linejoin:round;stroke-miterlimit:1.41421;">
    <g transform="matrix(1,0,0,1,-2892,-998)">
        <g id="Timer" transform="matrix(1,0,0,1,-5168.96,998.031)">
            <rect x="8061.68" y="0" width="755.906" height="755.906" style="fill:none;"/>
            <g transform="matrix(1,0,0,1,0,-998.031)">
                <path d="M8474.06,1134.83C8479.09,1134.83 8483.18,1138.92 8483.18,1143.95L8483.18,1162.2C8483.18,1167.23 8479.09,1171.32 8474.06,1171.32L8457.88,1171.32L8457.88,1180.8C8462.57,1181.23 8467.24,1181.83 8471.88,1182.6C8488.37,1185.34 8504.5,1190.2 8519.75,1197.05C8527.86,1200.69 8535.73,1204.89 8543.27,1209.6C8552.94,1215.63 8562.07,1222.51 8570.54,1230.12C8579.15,1237.84 8587.06,1246.33 8594.18,1255.43C8598.78,1261.32 8603.05,1267.47 8606.95,1273.85C8609.83,1278.57 8612.53,1283.41 8615,1288.35C8618.48,1295.29 8621.54,1302.43 8624.16,1309.74C8627.58,1319.23 8630.25,1329 8632.15,1338.91C8636.22,1360.11 8636.75,1381.98 8633.76,1403.36C8632.44,1412.83 8630.41,1422.19 8627.72,1431.36C8624.79,1441.32 8621.05,1451.05 8616.57,1460.42C8612.22,1469.5 8607.18,1478.24 8601.49,1486.54C8593.96,1497.55 8585.3,1507.78 8575.7,1517.04C8566.53,1525.9 8556.49,1533.87 8545.77,1540.78C8535.96,1547.11 8525.59,1552.57 8514.82,1557.05C8502.36,1562.24 8489.36,1566.12 8476.1,1568.62C8464.09,1570.88 8451.86,1572.01 8439.63,1572.01C8427.81,1572.01 8415.99,1570.96 8404.36,1568.84C8390.69,1566.35 8377.28,1562.39 8364.45,1557.05C8353.49,1552.49 8342.95,1546.93 8333,1540.46C8325.76,1535.76 8318.83,1530.57 8312.26,1524.95C8302.43,1516.55 8293.44,1507.16 8285.44,1496.99C8279.73,1489.73 8274.53,1482.06 8269.9,1474.06C8260.19,1457.3 8252.98,1439.09 8248.62,1420.21C8246.83,1412.44 8245.51,1404.55 8244.68,1396.61C8243.2,1382.5 8243.25,1368.23 8244.81,1354.13C8246.09,1342.58 8248.41,1331.15 8251.72,1320.02C8254.18,1311.79 8257.18,1303.71 8260.69,1295.87C8265.79,1284.52 8271.97,1273.66 8279.12,1263.49C8285.32,1254.66 8292.24,1246.35 8299.8,1238.65C8308.04,1230.26 8317.04,1222.6 8326.65,1215.81C8336.97,1208.52 8347.99,1202.22 8359.52,1197.05C8366.81,1193.78 8374.3,1190.95 8381.94,1188.6C8390.27,1186.03 8398.78,1184.03 8407.38,1182.6C8412.03,1181.83 8416.7,1181.23 8421.39,1180.8L8421.39,1171.32L8405.21,1171.32C8400.17,1171.32 8396.09,1167.23 8396.09,1162.2L8396.09,1143.95C8396.09,1138.92 8400.17,1134.83 8405.21,1134.83L8474.06,1134.83ZM8439.1,1213.29C8435.97,1213.3 8432.83,1213.4 8429.69,1213.59C8423.2,1213.98 8416.73,1214.76 8410.33,1215.92C8403.73,1217.12 8397.2,1218.74 8390.8,1220.75C8384.79,1222.64 8378.91,1224.88 8373.16,1227.46C8363.15,1231.95 8353.6,1237.47 8344.7,1243.88C8337.16,1249.31 8330.09,1255.38 8323.58,1262.01C8317.3,1268.4 8311.55,1275.31 8306.4,1282.64C8302.73,1287.86 8299.37,1293.3 8296.34,1298.92C8294.62,1302.09 8293.01,1305.33 8291.51,1308.62C8288.91,1314.34 8286.63,1320.21 8284.71,1326.19C8282.7,1332.42 8281.08,1338.77 8279.85,1345.19C8278.46,1352.41 8277.57,1359.74 8277.18,1367.08C8277.03,1369.87 8276.94,1372.66 8276.94,1375.45C8276.93,1377.72 8276.97,1380 8277.06,1382.28C8277.27,1387.95 8277.78,1393.62 8278.59,1399.25C8279.71,1407.08 8281.41,1414.84 8283.67,1422.42C8286.17,1430.83 8289.36,1439.03 8293.19,1446.92C8296.28,1453.26 8299.77,1459.39 8303.64,1465.28C8310.45,1475.62 8318.44,1485.19 8327.41,1493.73C8333.19,1499.24 8339.37,1504.33 8345.89,1508.94C8355.8,1515.94 8366.49,1521.84 8377.71,1526.47C8387.58,1530.54 8397.86,1533.63 8408.34,1535.67C8418.81,1537.71 8429.49,1538.71 8440.16,1538.68C8450.99,1538.64 8461.81,1537.55 8472.42,1535.37C8482.71,1533.26 8492.78,1530.15 8502.47,1526.08C8512.75,1521.77 8522.59,1516.39 8531.77,1510.06C8539.15,1504.97 8546.11,1499.28 8552.56,1493.06C8560.53,1485.37 8567.73,1476.86 8573.98,1467.72C8578.79,1460.69 8583.06,1453.29 8586.71,1445.59C8590.33,1437.96 8593.35,1430.05 8595.74,1421.95C8597.3,1416.63 8598.59,1411.24 8599.6,1405.78C8600.07,1403.28 8600.47,1400.77 8600.82,1398.25C8601.23,1395.18 8601.57,1392.1 8601.81,1389.02C8602.31,1382.76 8602.44,1376.48 8602.23,1370.21C8602.14,1367.79 8602.01,1365.37 8601.81,1362.95C8601.54,1359.53 8601.16,1356.12 8600.68,1352.72C8600.22,1349.53 8599.67,1346.35 8599.02,1343.19C8598.35,1339.91 8597.57,1336.64 8596.69,1333.4C8594.86,1326.67 8592.61,1320.05 8589.93,1313.61C8587.78,1308.44 8585.36,1303.39 8582.69,1298.47C8579.88,1293.3 8576.78,1288.28 8573.43,1283.45C8570.18,1278.76 8566.68,1274.24 8562.96,1269.92C8557.86,1264 8552.33,1258.44 8546.44,1253.3C8534.11,1242.55 8520.16,1233.66 8505.19,1227.06C8498.37,1224.04 8491.33,1221.5 8484.15,1219.46C8477.67,1217.62 8471.07,1216.18 8464.41,1215.16C8458.46,1214.25 8452.46,1213.68 8446.45,1213.43C8444,1213.33 8441.55,1213.29 8439.1,1213.29ZM8444.64,1240.2C8369.65,1240.2 8308.85,1300.99 8308.85,1375.98C8308.85,1450.93 8369.69,1511.77 8444.64,1511.77C8499.87,1511.77 8549.6,1478.32 8570.42,1427.16L8444.64,1375.98L8444.64,1240.2Z" style="fill:rgb(123,123,123);"/>
            </g>
        </g>
    </g>
</svg>
