<?xml version="1.0" encoding="UTF-8" standalone="no"?>
<!DOCTYPE svg PUBLIC "-//W3C//DTD SVG 1.1//EN" "http://www.w3.org/Graphics/SVG/1.1/DTD/svg11.dtd">
<svg width="100%" height="100%" viewBox="0 0 591 591" version="1.1" xmlns="http://www.w3.org/2000/svg" xmlns:xlink="http://www.w3.org/1999/xlink" xml:space="preserve" style="fill-rule:evenodd;clip-rule:evenodd;stroke-linejoin:round;stroke-miterlimit:1.41421;">
    <g transform="matrix(0.78546,0,0,0.78546,-1566.05,-741.004)">
        <rect x="1993.8" y="943.401" width="751.854" height="751.854" style="fill:rgb(136,210,232);"/>
    </g>
    <g transform="matrix(1.49552,0,0,1.26818,330.7,377.845)">
        <path d="M115.088,-71.067C115.088,-80.817 112.705,-90.783 108.372,-100.75C103.605,-110.067 96.888,-118.083 87.788,-124.8C86.055,-123.5 84.538,-121.767 83.022,-120.033C81.288,-117.867 79.772,-116.133 78.905,-114.617C91.905,-101.4 98.622,-87.533 98.622,-72.8C98.405,-53.733 91.038,-39 76.522,-28.817C71.322,-34.883 64.172,-43.117 55.072,-53.733C50.955,-52.867 47.705,-50.267 45.105,-45.933C48.355,-40.3 55.938,-29.25 68.072,-13.217C78.905,0.867 87.788,10.4 94.722,15.383C98.838,13.217 101.872,10.4 103.605,6.933C98.405,0.433 92.338,-7.15 85.622,-16.25C105.122,-28.6 115.088,-46.8 115.088,-71.067ZM76.305,-134.983C65.688,-141.917 54.205,-145.383 41.638,-145.6C21.922,-145.383 5.672,-138.667 -7.112,-125.667C-20.978,-110.5 -27.912,-92.733 -27.912,-72.8C-27.912,-49.833 -21.195,-31.633 -7.545,-18.2C5.022,-5.633 20.622,0.433 39.255,0.433C45.755,0.217 52.255,-1.3 58.972,-4.55C58.322,-9.75 57.022,-14.083 55.288,-17.55C49.655,-15.6 44.455,-14.733 39.255,-14.733C24.088,-14.733 11.522,-20.367 1.772,-31.417C-6.895,-42.25 -11.445,-55.467 -11.445,-71.067C-11.445,-86.883 -6.245,-100.967 4.588,-113.1C15.638,-124.367 27.988,-130.217 41.422,-130.217C49.872,-130.217 58.972,-127.833 68.938,-123.067C71.538,-125.233 74.138,-129.35 76.305,-134.983Z" style="fill:white;fill-rule:nonzero;"/>
    </g>
    <g transform="matrix(1.49552,0,0,1.26818,330.7,377.845)">
        <path d="M-43.078,-133.467C-43.078,-136.067 -43.295,-138.45 -43.728,-140.4C-53.262,-142.133 -77.528,-143.217 -116.528,-143.217C-131.695,-143.217 -146.645,-143 -161.378,-142.567C-162.245,-140.833 -162.462,-138.233 -162.462,-135.2C-162.462,-133.25 -162.245,-131.083 -161.378,-128.917C-147.728,-127.617 -129.528,-126.967 -106.778,-126.967C-80.995,-126.967 -60.195,-127.183 -44.378,-127.617C-43.512,-129.783 -43.078,-131.733 -43.078,-133.467ZM-50.012,-67.383C-50.012,-71.067 -50.228,-73.233 -50.445,-74.1C-70.378,-75.617 -86.845,-76.483 -99.845,-76.483C-111.545,-76.483 -120.862,-76.267 -127.795,-76.05C-128.445,-74.1 -128.662,-71.933 -128.662,-69.333C-128.662,-66.3 -128.445,-63.917 -128.012,-62.4C-112.412,-60.667 -92.912,-59.8 -69.945,-59.8C-58.678,-59.8 -52.178,-60.233 -50.662,-61.1C-50.228,-62.833 -50.012,-64.783 -50.012,-67.383ZM-138.412,-1.083C-138.412,-48.967 -139.278,-87.317 -140.578,-115.917C-141.878,-116.133 -144.262,-116.35 -147.945,-116.35C-150.978,-116.35 -153.362,-116.133 -154.662,-115.7C-155.528,-105.3 -155.745,-91.65 -155.745,-74.317C-155.745,-58.283 -155.095,-33.8 -153.578,-0.65C-151.845,0 -149.245,0.217 -146.212,0.217C-142.312,0.217 -139.712,-0.217 -138.412,-1.083Z" style="fill:white;fill-rule:nonzero;"/>
    </g>
</svg>
