<?xml version="1.0" standalone="no"?>
<!DOCTYPE svg PUBLIC "-//W3C//DTD SVG 20010904//EN"
 "http://www.w3.org/TR/2001/REC-SVG-20010904/DTD/svg10.dtd">
<svg version="1.0" xmlns="http://www.w3.org/2000/svg"
 width="700.000000pt" height="700.000000pt" viewBox="0 0 700.000000 700.000000"
 preserveAspectRatio="xMidYMid meet">
<metadata>
Created by potrace 1.11, written by Peter Selinger 2001-2013
</metadata>
<g transform="translate(0.000000,700.000000) scale(0.100000,-0.100000)"
fill="#000000" stroke="none">
<path d="M5010 5263 c-362 -12 -718 -112 -990 -280 -381 -235 -658 -631 -736
-1055 -22 -114 -24 -414 -5 -533 53 -330 182 -594 399 -813 311 -314 678 -474
1177 -512 210 -16 384 4 578 66 120 39 110 24 86 129 -13 51 -48 143 -68 173
-10 16 -21 22 -35 19 -210 -50 -355 -63 -536 -48 -563 48 -970 353 -1125 842
-73 232 -73 518 0 744 91 280 276 513 545 687 411 267 852 306 1378 123 56
-19 108 -35 116 -35 24 0 120 113 159 188 l38 71 -88 45 c-254 127 -590 198
-893 189z"/>
<path d="M275 5230 c-137 -3 -251 -7 -252 -8 -23 -21 -31 -229 -11 -293 13
-46 6 -44 228 -59 423 -28 1555 -38 2450 -21 l325 6 18 50 c14 40 17 71 13
154 -3 57 -7 105 -9 107 -15 15 -259 36 -627 55 -246 12 -1782 19 -2135 9z"/>
<path d="M6230 4767 c-30 -24 -83 -74 -118 -112 l-62 -68 103 -101 c223 -219
346 -419 393 -639 32 -150 13 -383 -45 -549 -72 -209 -223 -394 -436 -538
l-72 -49 -278 271 c-277 269 -278 270 -314 263 -70 -13 -160 -70 -206 -131
l-26 -34 44 -63 c119 -166 482 -581 722 -826 255 -260 500 -459 548 -447 61
15 217 144 217 179 0 5 -38 48 -84 96 -155 159 -375 406 -368 413 4 4 45 30
92 59 436 264 660 648 660 1129 0 153 -18 261 -69 410 -82 241 -152 353 -330
530 -93 92 -270 234 -309 247 -4 2 -32 -16 -62 -40z"/>
<path d="M230 4582 l-35 -7 -9 -105 c-5 -58 -9 -442 -10 -855 0 -620 4 -836
22 -1248 12 -273 22 -517 22 -541 l0 -45 57 -12 c68 -14 260 -7 312 12 l34 12
-7 591 c-11 1038 -43 2176 -60 2193 -9 9 -283 13 -326 5z"/>
<path d="M903 3614 c-16 -4 -24 -17 -33 -56 -15 -62 -8 -267 9 -278 16 -9 393
-38 681 -51 129 -6 442 -11 695 -12 454 -1 571 5 599 33 13 13 21 289 9 306
-5 7 -138 20 -358 34 -292 19 -452 24 -965 26 -338 1 -625 0 -637 -2z"/>
</g>
</svg>
